<?xml version="1.0"?><svg width="350" height="350" xmlns="http://www.w3.org/2000/svg">
 <title>Scouts</title>
 <g>
  <title>Layer 1</title>
  <g id="svg_1">
   <path id="svg_2" d="m217.347,249.436005c2.091995,0 3.785995,0.990997 3.785995,2.212997c0,1.223999 -1.694,2.214996 -3.785995,2.214996l-87.087997,0c-2.091995,0 -3.787003,-0.990997 -3.787003,-2.214996c0,-1.222 1.695007,-2.212997 3.787003,-2.212997l87.087997,0m0,-6l-87.087997,0c-5.580002,0 -9.787003,3.529999 -9.787003,8.212997c0,4.684006 4.208,8.215012 9.787003,8.215012l87.087997,0c5.578003,0 9.785995,-3.531006 9.785995,-8.215012c0,-4.682999 -4.207993,-8.212997 -9.785995,-8.212997l0,0z" fill="#ffffff"/>
  </g>
  <g id="svg_3">
   <path id="svg_4" d="m217.347,280.416992c2.091995,0 3.785995,0.990997 3.785995,2.213013c0,1.223999 -1.694,2.213989 -3.785995,2.213989l-87.087997,0c-2.091995,0 -3.787003,-0.98999 -3.787003,-2.213989c0,-1.222015 1.695007,-2.213013 3.787003,-2.213013l87.087997,0m0,-6l-87.087997,0c-5.580002,0 -9.787003,3.529999 -9.787003,8.213013s4.208,8.213989 9.787003,8.213989l87.087997,0c5.578003,0 9.785995,-3.531006 9.785995,-8.213989s-4.207993,-8.213013 -9.785995,-8.213013l0,0z" fill="#ffffff"/>
  </g>
  <path id="svg_5" d="m226.751007,267.139008c0,5.514008 -5.599991,9.981995 -12.50499,9.981995l-80.888,0c-6.906006,0 -12.505005,-4.470978 -12.505005,-9.981995l0,0c0,-5.515991 5.598999,-9.984009 12.505005,-9.984009l80.888,0c6.906982,-0.001007 12.50499,4.468994 12.50499,9.984009l0,0z" stroke-width="0" stroke="#ffffff" fill="#ffffff"/>
  <path id="svg_6" d="m138.811005,288.070007c-0.255005,0.406006 -0.503998,0.815979 -0.781006,1.213989c-11.416,16.377014 -49.650002,7.444 -28.309998,-28.286011c-36.066002,-4.746979 -45.650002,29.279022 -35.228004,47.641022c11.453003,23.41098 61.478996,30.427979 80.409996,-2.977997c2.924011,-5.161011 4.899002,-11.170013 6.144012,-17.591003l-22.235001,0zm-28.571007,-65.781006c11.402,5.994995 20.278008,14.602997 26.008995,24.043991l24.517014,0c-10.75,-63.995987 -59.869003,-95.897995 -106.606007,-90.542999c-53.284,6.105011 -81.882,90.319 0.495998,110.666c-13.399998,-24.812988 7.443001,-69.47699 55.584,-44.166992l0,0l0,0z" stroke-width="6" stroke="#ffffff" fill="#ffffff"/>
  <path id="svg_7" d="m185.669006,300.936005c-0.537003,-4.388 -0.929993,-8.675018 -1.192993,-12.86499l-23.506012,0c-0.259003,4.538971 -0.656998,9.176971 -1.238998,13.937988c-12.647003,8.145996 -7.716995,25.725006 -23.735001,36.234009c10.061996,0.264984 18.270996,-1.708008 20.919998,-5.415009c0,10.75 9.617004,19.812012 15.886002,32.858002c5.824005,-13.118988 15.207993,-24.095001 15.207993,-32.858002c2.64801,3.707001 10.85701,5.679993 20.921005,5.415009c-14.688004,-9.011017 -8.899002,-25.516022 -23.261993,-37.307007zm30.10199,-206.449005c-6.494003,-13.487999 -35.921997,-68.014999 -43.416992,-86.501999c-7.494003,18.486001 -36.702011,73.013001 -43.198013,86.502999c-5.727997,11.892998 -17.487999,38.472008 -2.998001,65.452003c10.177994,18.951996 26.798004,47.125992 32.854004,86.278l27.147003,0c5.804993,-39.279999 22.356995,-67.188995 32.609009,-86.279007c14.48999,-26.979996 2.728989,-53.558998 -2.997009,-65.451996z" stroke-width="6" stroke="#ffffff" fill="#ffffff"/>
  <path id="svg_8" d="m292.690002,155.789993c-46.710007,-5.352005 -95.796997,26.509003 -106.587006,90.427994l24.567001,0c5.734009,-9.395996 14.583008,-17.957993 25.938995,-23.929001c48.139999,-25.310989 68.98201,19.354004 55.584,44.167007c82.380005,-20.347 53.781006,-104.560989 0.497009,-110.666zm-55.559998,105.207993c21.339996,35.730011 -16.895004,44.662994 -28.311005,28.286011c-0.276993,-0.397003 -0.524994,-0.808014 -0.781006,-1.21402l-22.233002,0c1.244003,6.421021 3.220001,12.430023 6.144012,17.591003c18.931,33.404999 68.957001,26.389008 80.410004,2.977997c10.42099,-18.361969 0.837006,-52.38797 -35.229004,-47.640991z" stroke-width="6" stroke="#ffffff" fill="#ffffff"/>
 </g>
</svg>