<?xml version="1.0" encoding="utf-8"?>
<!-- Svg Vector Icons : http://www.onlinewebfonts.com/icon -->
<!DOCTYPE svg PUBLIC "-//W3C//DTD SVG 1.1//EN" "http://www.w3.org/Graphics/SVG/1.1/DTD/svg11.dtd">
<svg version="1.1" xmlns="http://www.w3.org/2000/svg" xmlns:xlink="http://www.w3.org/1999/xlink" x="0px" y="0px" viewBox="0 0 1000 1000" enable-background="new 0 0 1000 1000" xml:space="preserve">
<metadata> Svg Vector Icons : http://www.onlinewebfonts.com/icon </metadata>
<g><path d="M911.2,522.3c-28.8,0-69.7,2.1-104.8,19.4c-26-12.9-58.2-19.4-96-19.4c-28.8,0-69.7,2.1-104.8,19.4c-26-12.9-58.2-19.4-96-19.4c-28.8,0-69.7,2.1-104.8,19.4c-26-12.9-58.2-19.4-96-19.4c-28.8,0-69.7,2.1-104.8,19.4c-26-12.9-58.2-19.4-96-19.4H88.8c-43.5,0-78.8,35.4-78.8,78.8v312.6c0,43.5,35.4,78.8,78.8,78.8h822.3c43.5,0,78.8-35.4,78.8-78.8V601.2C990,557.7,954.6,522.3,911.2,522.3z M806.3,593.1c31.5,26.8,31.5,65.9,31.5,83.1c0,45.7-18,66.2-30.8,66.2c-12.5,0-30.1-20.5-30.1-66.2C776.9,638.1,786.1,610.9,806.3,593.1z M605.5,593.1C637,619.9,637,659,637,676.1c0,45.7-18,66.2-30.8,66.2c-12.5,0-30.1-20.5-30.1-66.2C576.1,638.1,585.2,610.9,605.5,593.1z M404.7,593.1c31.5,26.8,31.5,65.9,31.5,83.1c0,45.7-18,66.2-30.8,66.2c-12.5,0-30.1-20.5-30.1-66.2C375.3,638.1,384.4,610.9,404.7,593.1z M203.9,593.1c31.5,26.8,31.5,65.9,31.5,83.1c0,45.7-18,66.2-30.8,66.2c-12.5,0-30.1-20.5-30.1-66.2C174.5,638.1,183.6,610.9,203.9,593.1z M946.7,913.8c0,19.6-15.9,35.5-35.5,35.5H88.8c-19.6,0-35.5-15.9-35.5-35.5V601.2c0-19.6,15.9-35.5,35.5-35.5h19.1c22.3,0,40.7,2.5,55.8,6.9c-21.6,25.4-32.6,60-32.6,103.6c0,75.2,38.1,109.5,73.4,109.5c20.8,0,40.5-11.5,54-31.7c13.1-19.6,20.1-46.5,20.1-77.9c0-43.2-11.4-77.9-34-103.6c17.6-4.7,38.9-7,64-7c22.3,0,40.7,2.5,55.8,6.9c-21.6,25.4-32.6,60-32.6,103.6c0,75.2,38.1,109.5,73.4,109.5c20.8,0,40.5-11.5,54-31.7c13.1-19.6,20.1-46.5,20.1-77.9c0-43.2-11.4-77.9-34-103.6c17.6-4.7,38.9-7,64-7c22.3,0,40.7,2.5,55.8,6.9c-21.6,25.4-32.6,60-32.6,103.6c0,75.2,38.1,109.5,73.4,109.5c20.8,0,40.5-11.5,54-31.7c13.1-19.6,20.1-46.5,20.1-77.9c0-43.2-11.4-77.9-34-103.6c17.6-4.7,38.9-7,64-7c22.3,0,40.7,2.5,55.8,6.9c-21.6,25.4-32.6,60-32.6,103.6c0,75.2,38.1,109.5,73.4,109.5c20.8,0,40.5-11.5,54-31.7c13.1-19.6,20.1-46.5,20.1-77.9c0-43.2-11.4-77.9-34-103.6c17.6-4.7,38.9-7,64-7c19.6,0,35.5,15.9,35.5,35.5L946.7,913.8L946.7,913.8z"/><path d="M193,467.6c-6.4,0-12.8-1.9-18.5-5.8c-14.8-10.2-18.4-30.4-8.2-45.2c36.8-53.2,60.5-125.9,34.6-161.9c-44.6-62.1-57.1-109.5-12.7-226.4c6.4-16.8,25.1-25.2,41.9-18.8c16.8,6.4,25.2,25.1,18.8,41.9c-37.8,99.5-25.2,123.9,4.7,165.4c48.9,68,12.3,170.1-33.9,236.8C213.4,462.8,203.3,467.6,193,467.6z"/><path d="M478.6,467.6c-6.4,0-12.8-1.9-18.5-5.8c-14.8-10.2-18.4-30.4-8.2-45.2c36.8-53.2,60.5-125.9,34.6-161.9c-44.6-62.1-57.1-109.5-12.7-226.4c6.4-16.8,25.1-25.2,41.9-18.8c16.8,6.4,25.2,25.1,18.8,41.9c-37.8,99.5-25.2,123.9,4.7,165.4c48.9,68,12.3,170.1-33.9,236.8C499,462.8,488.9,467.6,478.6,467.6z"/><path d="M755.6,467.6c-6.4,0-12.8-1.9-18.5-5.8c-14.8-10.2-18.4-30.4-8.2-45.2c36.8-53.2,60.5-125.9,34.6-161.9c-44.6-62.1-57.1-109.5-12.7-226.4c6.4-16.8,25.1-25.2,41.9-18.8c16.8,6.4,25.2,25.1,18.8,41.9c-37.8,99.5-25.2,123.9,4.7,165.4c48.9,68,12.3,170.1-33.9,236.8C776,462.8,765.9,467.6,755.6,467.6z"/></g>
</svg>