<?xml version="1.0" encoding="utf-8"?>
<!-- Svg Vector Icons : http://www.onlinewebfonts.com/icon -->
<!DOCTYPE svg PUBLIC "-//W3C//DTD SVG 1.1//EN" "http://www.w3.org/Graphics/SVG/1.1/DTD/svg11.dtd">
<svg version="1.1" xmlns="http://www.w3.org/2000/svg" xmlns:xlink="http://www.w3.org/1999/xlink" x="0px" y="0px" viewBox="0 0 1000 1000" enable-background="new 0 0 1000 1000" xml:space="preserve">
<metadata> Svg Vector Icons : http://www.onlinewebfonts.com/icon </metadata>
<g><g transform="translate(0.000000,511.000000) scale(0.100000,-0.100000)"><path d="M2750.8,4896c-367.3-326.7-514.2-577.9-531.6-914.3c-7.7-164.3-1.9-206.8,40.6-347.9c56.1-179.8,172-382.7,367.3-643.7c150.8-201,226.2-342.1,226.2-419.5c0-88.9-46.4-156.6-204.9-301.5l-148.8-137.2l237.7-318.9c218.4-291.9,241.6-317,278.3-297.7c77.3,40.6,427.2,411.7,491,520c143,243.5,191.4,518,131.5,751.9c-46.4,187.5-183.6,446.5-369.2,695.9c-193.3,262.9-241.6,351.8-241.6,458.1c0,96.7,69.6,197.2,226.2,324.7c61.9,50.3,112.1,98.6,112.1,104.4c0,17.4-460,637.9-473.6,639.8C2886.1,5010,2822.3,4957.8,2750.8,4896z"/><path d="M4807.5,4892.1c-289.9-245.5-485.2-549-525.8-829.2c-19.3-121.8-17.4-170.1,9.7-301.5c52.2-259,137.2-417.5,462-867.9c230-315.1,216.5-411.7-87-666.9l-110.2-92.8l241.6-322.8c214.6-286.1,245.5-318.9,274.5-295.7c322.8,247.4,533.5,520,616.6,792.5c50.2,164.3,42.5,400.1-21.3,585.7c-65.7,193.3-108.3,266.7-332.5,581.8c-230,320.9-272.6,411.7-241.6,512.2c27.1,88.9,90.8,166.2,235.8,288l112.1,92.8l-241.6,320.9C5068.4,4865,4956.3,5010,4954.4,5010C4950.5,5010,4884.8,4957.8,4807.5,4892.1z"/><path d="M6900.8,4917.2c-353.7-293.8-543.2-606.9-564.4-931.7c-17.4-280.3,104.4-577.9,392.4-966.5c193.3-262.9,241.6-351.8,241.6-458.1c0-94.7-67.7-193.3-214.5-315.1c-58-46.4-112.1-90.9-119.9-98.6c-13.5-9.7,299.6-448.4,462-653.3c17.4-21.3,363.4,309.3,462,444.6c152.7,204.9,222.3,405.9,222.3,639.8c0,276.4-114,535.4-411.7,933.6c-152.7,204.9-226.1,342.1-226.1,425.2c0,81.2,81.2,199.1,212.6,311.2c58,48.3,114.1,96.6,123.7,106.3c13.5,11.6-349.9,527.7-452.3,641.7C7020.7,5006.1,6962.7,4969.4,6900.8,4917.2z"/><path d="M1471.2,943.1c-282.2-88.9-489-307.3-560.6-583.8C883.6,255,881.7,23,885.5-1544.6l5.8-1786l69.6-145c42.5-87,108.2-183.6,164.3-239.7c117.9-116,322.8-218.4,475.5-235.8l112.1-13.5v-411.7V-4790h608.9h608.9v415.6v415.6h2068.2h2068.2v-415.6V-4790h608.9h608.9v415.6v415.6h54.1c239.7,1.9,543.2,195.2,670.7,429.1C9117.9-3330.6,9116-3379,9116-1494.3c0,1921.3,3.9,1867.2-121.8,2076C8913,715,8789.3,825.2,8632.7,900.6l-125.6,59.9l-3479.3,3.9C2254.1,966.3,1533.1,962.4,1471.2,943.1z M8304.1-1494.3V-3147H4998.8H1693.5v1652.7V158.3h3305.3h3305.3V-1494.3z"/><path d="M2708.3-292.1c-139.2-46.4-247.4-112.1-347.9-214.6c-318.9-318.9-317-827.3,3.9-1148.2c338.3-338.3,904.6-309.3,1206.2,63.8c328.6,409.8,187.5,1022.5-289.9,1250.6c-110.2,52.2-152.7,61.8-311.2,67.7C2851.3-268.8,2758.5-276.6,2708.3-292.1z"/><path d="M4998.8-1494.3v-821.5h405.9h405.9v821.5v821.5h-405.9h-405.9V-1494.3z"/><path d="M6661.1-1494.3v-821.5h405.9H7473v821.5v821.5h-405.9h-405.9V-1494.3z"/></g></g>
</svg>