<?xml version="1.0" encoding="UTF-8"?>
<!DOCTYPE svg PUBLIC "-//W3C//DTD SVG 1.1//EN" "http://www.w3.org/Graphics/SVG/1.1/DTD/svg11.dtd">
<!-- Creator: CorelDRAW 2019 (64-Bit) -->
<svg xmlns="http://www.w3.org/2000/svg" xml:space="preserve" width="170mm" height="190mm" version="1.1" style="shape-rendering:geometricPrecision; text-rendering:geometricPrecision; image-rendering:optimizeQuality; fill-rule:evenodd; clip-rule:evenodd"
viewBox="0 000 17000 19000"
 xmlns:xlink="http://www.w3.org/1999/xlink">
 <defs>
  <style type="text/css">
   <![CDATA[
    .str1 {stroke:black;stroke-width:32.32;stroke-miterlimit:22.9256}
    .str2 {stroke:#F5F3CC;stroke-width:16.16;stroke-miterlimit:22.9256}
    .str0 {stroke:black;stroke-width:32.32;stroke-linejoin:bevel;stroke-miterlimit:22.9256}
    .fil2 {fill:none}
    .fil9 {fill:black}
    .fil10 {fill:#2C6916}
    .fil8 {fill:#4F9EF7}
    .fil4 {fill:#86A176}
    .fil3 {fill:#BDDEFF}
    .fil0 {fill:#BFBFBF}
    .fil5 {fill:#CF003E}
    .fil1 {fill:#CF003E}
    .fil7 {fill:#F7BC4F}
    .fil6 {fill:#FAF8C8}
    .fil11 {fill:#D51F41;fill-opacity:0.501961}
   ]]>
  </style>
 </defs>
 <g id="Station">
  <metadata id="CorelCorpID_0Corel-Layer"/>
  <polygon class="fil0" points="399.1,9918.04 526.97,9875.35 526.97,8576.42 399.1,8431.26 399.1,8059.58 8723.73,5280.86 8723.73,5140.33 8765.19,5126.5 9043.34,5442.21 9377.16,5330.77 9398.59,5356.65 9391.36,5730.77 9326.69,5763.83 13326.59,10303.77 13671.17,10204.74 13693.83,10230.25 13693.83,10601.96 13613.07,10628.91 16365.78,13759.59 16365.78,14131.28 16237.89,14173.97 16237.89,15472.92 16365.78,15618.06 16365.78,15989.75 7908.32,18812.8 399.1,10289.74 "/>
  <g id="_935478144">
   <polygon class="fil0" points="8474.07,3395.95 11790.7,2288.86 11680.33,2163.6 11476.06,1931.73 11168.65,1582.83 10964.38,1350.98 9992.1,247.42 6675.44,1354.51 "/>
   <polygon class="fil0" points="8474.07,4511.04 8474.07,3395.95 6675.44,1354.51 6675.44,2469.58 "/>
   <polygon class="fil0" points="8474.07,4511.04 11790.7,3403.95 11790.7,2288.86 8474.07,3395.95 "/>
   <path class="fil0" d="M11168.65 1582.83l3833.68 -75.14c-42.18,129.96 -40.84,254.62 3.84,354.86l-3530.12 69.19 204.27 231.86 3198.22 -62.72 -4066.19 5002.82 -12.47 15.34c-4.5,5.55 8.77,24.84 34.83,50.62 26.06,25.78 60.95,54.13 91.52,74.38 7.74,5.12 14.92,9.53 21.37,13.17 19.02,10.72 31.93,14.7 35.29,10.58l4204.44 -5172.95 2.09 -0.04 137.4 155.95c-54.25,-64.65 -85.38,-150.68 -85.38,-253.63 0,-307.91 278.41,-650.46 621.87,-765.12 221.24,-73.83 415.51,-35.1 525.74,84.14l-264.72 -300.47c-112.95,-128.17 -314.06,-162.23 -530.82,-89.88 -178.13,59.47 -347.72,184.57 -465.73,343.58l-4163.41 81.63 204.27 231.85z"/>
   <path class="fil0" d="M15241.45 1997.11c0,102.95 31.13,188.99 85.3,253.54l5.69 6.61c10.31,11.68 21.41,22.63 33.24,32.8 59.8,51.45 138.3,83.39 228.99,92.13 81.32,7.82 172.42,-2.99 268.65,-35.1 343.44,-114.63 621.87,-457.19 621.87,-765.12 0,-106.45 -33.28,-194.83 -91.07,-260.1l-5.07 -5.75c-110.23,-119.24 -304.49,-157.97 -525.74,-84.14 -343.46,114.66 -621.87,457.21 -621.87,765.12z"/>
   <path class="fil0" d="M15365.7 2290.01l-4339.41 5338.98 0 63.9 131.05 148.74 4437.33 -5459.45c-90.68,-8.74 -169.19,-40.68 -228.97,-92.17z"/>
   <path class="fil0" d="M10520.69 7119.02l269.78 306.22 235.82 -78.72 -78.67 -89.32c-6.46,-3.64 -13.63,-8.05 -21.37,-13.17 -30.57,-20.25 -65.45,-48.6 -91.52,-74.38 -26.06,-25.78 -39.33,-45.07 -34.83,-50.62l12.47 -15.34 -55.85 -63.4 -235.82 78.72z"/>
   <polygon class="fil0" points="10790.49,7425.24 11026.29,7692.9 11026.29,7628.99 11026.29,7346.52 "/>
  </g>
  <g id="_935476032">
   <polygon class="fil1" points="12097.34,16016.53 11807.13,16113.41 11807.13,16429.34 12097.34,16332.48 "/>
   <polygon class="fil1" points="11874.57,16821.84 11807.13,16429.34 11807.13,16113.41 11784.65,16087.89 11784.65,16719.76 11822.61,16762.84 "/>
   <polygon class="fil1" points="11807.13,16429.34 11874.57,16821.84 12164.78,16724.96 12152.38,16652.78 12097.34,16332.48 "/>
   <polygon class="fil1" points="12221.71,15975.01 12221.71,16290.96 12511.9,16194.08 12511.9,15878.15 "/>
   <polygon class="fil1" points="12511.9,16194.08 12221.71,16290.96 12289.15,16683.46 12579.36,16586.59 12551.62,16425.14 "/>
   <polygon class="fil1" points="12289.15,16683.46 12221.71,16290.96 12221.71,15975.01 12199.23,15949.49 12199.23,16581.37 12237.2,16624.47 "/>
  </g>
  <g id="_934438848">
   <line class="fil2 str0" x1="9192.35" y1="5611.34" x2="9150.88" y2= "5625.17" />
   <line class="fil2 str0" x1="9150.88" y1="5625.17" x2="9150.88" y2= "5811.01" />
   <line class="fil2 str0" x1="1232.39" y1="8268.32" x2="1232.39" y2= "8454.17" />
   <line class="fil2 str0" x1="1273.85" y1="8254.48" x2="1232.39" y2= "8268.32" />
   <line class="fil2 str0" x1="9399.64" y1="5727.99" x2="9318.88" y2= "5754.95" />
   <line class="fil2 str0" x1="9399.64" y1="5356.29" x2="9399.64" y2= "5727.99" />
   <line class="fil2 str0" x1="1025.09" y1="8151.67" x2="9399.64" y2= "5356.29" />
   <line class="fil2 str0" x1="1025.1" y1="8151.67" x2="1025.1" y2= "8523.36" />
   <line class="fil2 str0" x1="1232.39" y1="8454.17" x2="1025.1" y2= "8523.36" />
   <line class="fil2 str0" x1="9150.89" y1="5811.02" x2="1400.38" y2= "8398.08" />
   <line class="fil2 str0" x1="1025.1" y1="8523.36" x2="1002.62" y2= "8497.84" />
   <line class="fil2 str0" x1="9399.64" y1="5356.29" x2="9377.16" y2= "5330.77" />
   <line class="fil2 str0" x1="9377.16" y1="5330.76" x2="1002.61" y2= "8126.15" />
   <line class="fil2 str0" x1="1002.62" y1="8126.15" x2="1025.1" y2= "8151.67" />
   <line class="fil2 str0" x1="1002.62" y1="8126.15" x2="1002.62" y2= "8497.84" />
   <line class="fil2 str0" x1="13445.08" y1="10499.14" x2="13486.55" y2= "10485.3" />
   <line class="fil2 str0" x1="13445.08" y1="10684.99" x2="13445.08" y2= "10499.14" />
   <line class="fil2 str0" x1="5526.59" y1="13328.14" x2="5526.59" y2= "13142.29" />
   <line class="fil2 str0" x1="5526.59" y1="13142.29" x2="5568.04" y2= "13128.45" />
   <line class="fil2 str0" x1="5296.81" y1="13000.12" x2="5296.81" y2= "13371.81" />
   <line class="fil2 str0" x1="5296.76" y1="13000.1" x2="13671.18" y2= "10204.75" />
   <line class="fil2 str0" x1="5319.3" y1="13397.33" x2="5526.59" y2= "13328.14" />
   <line class="fil2 str0" x1="5296.81" y1="13371.81" x2="5319.3" y2= "13397.33" />
   <line class="fil2 str0" x1="5694.58" y1="13272.06" x2="13445.08" y2= "10684.99" />
   <line class="fil2 str0" x1="13671.35" y1="10204.74" x2="13693.83" y2= "10230.26" />
   <line class="fil2 str0" x1="5319.3" y1="13025.63" x2="5296.81" y2= "13000.12" />
   <line class="fil2 str0" x1="13671.35" y1="10237.74" x2="5319.28" y2= "13025.6" />
   <line class="fil2 str0" x1="13613.07" y1="10628.91" x2="13693.83" y2= "10601.96" />
   <line class="fil2 str0" x1="5319.3" y1="13025.63" x2="5319.3" y2= "13397.33" />
   <line class="fil2 str0" x1="13693.83" y1="10230.26" x2="13693.83" y2= "10601.96" />
   <line class="fil2 str0" x1="14610.67" y1="11761.21" x2="14569.22" y2= "11775.05" />
   <line class="fil2 str0" x1="8765.18" y1="5126.49" x2="9043.34" y2= "5442.2" />
   <line class="fil2 str0" x1="9192.35" y1="5611.34" x2="13337.53" y2= "10316.17" />
   <line class="fil2 str0" x1="13486.55" y1="10485.3" x2="14610.67" y2= "11761.21" />
   <line class="fil2 str0" x1="8723.72" y1="5140.32" x2="8765.18" y2= "5126.49" />
   <line class="fil2 str0" x1="14569.22" y1="11775.05" x2="13445.08" y2= "10499.14" />
   <line class="fil2 str0" x1="13296.07" y1="10330.01" x2="9150.88" y2= "5625.17" />
   <line class="fil2 str0" x1="9001.87" y1="5456.04" x2="8723.72" y2= "5140.32" />
   <line class="fil2 str0" x1="14569.22" y1="12146.75" x2="14610.67" y2= "12132.91" />
   <line class="fil2 str0" x1="9024.36" y1="5853.25" x2="13043.01" y2= "10414.48" />
   <line class="fil2 str0" x1="13318.55" y1="10727.22" x2="14569.22" y2= "12146.75" />
   <line class="fil2 str0" x1="14610.67" y1="11761.21" x2="14610.67" y2= "12132.91" />
   <line class="fil2 str0" x1="8723.72" y1="5140.32" x2="8723.72" y2= "5547.77" />
   <line class="fil2 str0" x1="14569.22" y1="11775.05" x2="14569.22" y2= "12146.75" />
   <line class="fil2 str0" x1="6650.72" y1="14418.2" x2="6692.18" y2= "14404.36" />
   <line class="fil2 str0" x1="6692.18" y1="14404.36" x2="5568.04" y2= "13128.45" />
   <line class="fil2 str0" x1="5419.03" y1="12959.32" x2="1273.85" y2= "8254.48" />
   <line class="fil2 str0" x1="1124.84" y1="8085.35" x2="846.67" y2= "7769.63" />
   <line class="fil2 str0" x1="846.67" y1="7769.63" x2="805.22" y2= "7783.47" />
   <line class="fil2 str0" x1="805.22" y1="7783.47" x2="1083.38" y2= "8099.19" />
   <line class="fil2 str0" x1="1232.39" y1="8268.32" x2="5377.58" y2= "12973.16" />
   <line class="fil2 str0" x1="5526.59" y1="13142.29" x2="6650.72" y2= "14418.2" />
   <line class="fil2 str0" x1="6692.18" y1="14776.06" x2="6650.72" y2= "14789.9" />
   <line class="fil2 str0" x1="6650.72" y1="14789.9" x2="5400.06" y2= "13370.38" />
   <line class="fil2 str0" x1="5296.81" y1="13253.19" x2="1105.86" y2= "8496.4" />
   <line class="fil2 str0" x1="1002.62" y1="8379.22" x2="805.22" y2= "8155.17" />
   <line class="fil2 str0" x1="805.22" y1="7783.47" x2="805.22" y2= "8155.17" />
   <line class="fil2 str0" x1="6650.72" y1="14418.2" x2="6650.72" y2= "14789.9" />
   <line class="fil2 str0" x1="6692.18" y1="14404.36" x2="6692.18" y2= "14776.06" />
   <path class="fil2 str0" d="M15593.53 925.78c216.76,-72.36 417.87,-38.29 530.8,89.88"/>
   <path class="fil2 str0" d="M15006.17 1862.53c-44.67,-100.23 -46.01,-224.88 -3.83,-354.85"/>
   <path class="fil2 str0" d="M15127.77 1269.36c118.04,-159.01 287.62,-284.12 465.76,-343.58"/>
   <path class="fil2 str0" d="M15863.32 1231.99c-343.45,114.64 -621.87,457.2 -621.87,765.12 0,307.93 278.42,464.61 621.87,349.97 343.45,-114.64 621.87,-457.2 621.87,-765.12 0,-307.92 -278.42,-464.61 -621.87,-349.96z"/>
   <line class="fil2 str0" x1="16124.33" y1="1015.66" x2="16394.13" y2= "1321.87" />
   <line class="fil2 str0" x1="15189.44" y1="2094.8" x2="15332.52" y2= "2257.2" />
   <line class="fil2 str0" x1="15195.36" y1="2094.67" x2="15187.35" y2= "2094.83" />
   <line class="fil2 str0" x1="15002.76" y1="2098.45" x2="11680.32" y2= "2163.59" />
   <line class="fil2 str0" x1="15076.7" y1="1861.15" x2="11476.06" y2= "1931.73" />
   <path class="fil2 str0" d="M10982.89 7267.77c-4.5,5.54 -26.11,-3.51 -56.67,-23.75 -30.55,-20.23 -65.43,-48.58 -91.49,-74.36 -26.05,-25.79 -39.33,-45.08 -34.82,-50.62"/>
   <line class="fil2 str0" x1="10799.91" y1="7119.05" x2="14878.55" y2= "2100.89" />
   <line class="fil2 str0" x1="10982.89" y1="7267.77" x2="15189.46" y2= "2092.23" />
   <line class="fil2 str0" x1="10790.47" y1="7425.23" x2="11026.29" y2= "7346.51" />
   <line class="fil2 str0" x1="11026.29" y1="7346.51" x2="10947.61" y2= "7257.2" />
   <line class="fil2 str0" x1="10812.37" y1="7103.71" x2="10756.5" y2= "7040.3" />
   <line class="fil2 str0" x1="10756.5" y1="7040.3" x2="10520.69" y2= "7119.01" />
   <line class="fil2 str0" x1="11026.29" y1="7346.51" x2="11026.29" y2= "7692.89" />
   <line class="fil2 str0" x1="11790.71" y1="2288.87" x2="8474.06" y2= "3395.95" />
   <line class="fil2 str0" x1="9992.1" y1="247.42" x2="11790.71" y2= "2288.87" />
   <line class="fil2 str0" x1="6675.44" y1="1354.5" x2="9992.1" y2= "247.42" />
   <line class="fil2 str0" x1="8474.06" y1="3395.95" x2="6675.44" y2= "1354.5" />
   <line class="fil2 str0" x1="8474.06" y1="4511.03" x2="11790.71" y2= "3403.95" />
   <line class="fil2 str0" x1="6675.44" y1="2469.58" x2="8474.06" y2= "4511.03" />
   <line class="fil2 str0" x1="11790.71" y1="2288.87" x2="11790.71" y2= "3403.95" />
   <line class="fil2 str0" x1="6675.44" y1="1354.5" x2="6675.44" y2= "2469.58" />
   <line class="fil2 str0" x1="8474.06" y1="3395.95" x2="8474.06" y2= "4511.03" />
   <line class="fil2 str0" x1="2353.3" y1="9479.68" x2="8617.9" y2= "7388.61" />
   <line class="fil2 str0" x1="12199.22" y1="16581.38" x2="12199.22" y2= "15949.5" />
   <line class="fil2 str0" x1="12199.22" y1="15949.5" x2="12489.43" y2= "15852.63" />
   <line class="fil2 str0" x1="11784.65" y1="16087.89" x2="11784.65" y2= "16719.77" />
   <line class="fil2 str0" x1="12074.85" y1="15991.01" x2="11784.65" y2= "16087.89" />
   <line class="fil2 str0" x1="11722.46" y1="16796.27" x2="11822.6" y2= "16762.84" />
   <line class="fil2 str0" x1="12152.37" y1="16652.77" x2="12237.19" y2= "16624.46" />
   <line class="fil2 str0" x1="12551.62" y1="16425.14" x2="12551.62" y2= "15776.12" />
   <line class="fil2 str0" x1="12551.62" y1="15776.12" x2="11722.46" y2= "16052.89" />
   <line class="fil2 str0" x1="11722.46" y1="16052.89" x2="11722.46" y2= "16796.27" />
   <line class="fil2 str0" x1="11677.49" y1="16745.24" x2="11677.49" y2= "16001.85" />
   <line class="fil2 str0" x1="11677.49" y1="16001.85" x2="12506.66" y2= "15725.08" />
   <line class="fil2 str0" x1="11722.46" y1="16052.89" x2="11677.49" y2= "16001.85" />
   <line class="fil2 str0" x1="11722.46" y1="16796.27" x2="11677.49" y2= "16745.24" />
   <line class="fil2 str0" x1="12551.62" y1="15776.12" x2="12506.66" y2= "15725.08" />
   <line class="fil2 str0" x1="11874.58" y1="16821.83" x2="12164.78" y2= "16724.97" />
   <line class="fil2 str0" x1="11784.65" y1="16719.77" x2="11874.58" y2= "16821.83" />
   <line class="fil2 str0" x1="11807.13" y1="16429.34" x2="12097.33" y2= "16332.48" />
   <line class="fil2 str0" x1="11807.13" y1="16429.34" x2="11874.58" y2= "16821.83" />
   <line class="fil2 str0" x1="12164.78" y1="16724.97" x2="12097.33" y2= "16332.48" />
   <line class="fil2 str0" x1="12074.85" y1="15991.01" x2="12097.33" y2= "16016.53" />
   <line class="fil2 str0" x1="12097.33" y1="16332.48" x2="12097.33" y2= "16016.53" />
   <line class="fil2 str0" x1="11784.65" y1="16087.89" x2="11807.13" y2= "16113.41" />
   <line class="fil2 str0" x1="12097.33" y1="16016.53" x2="11807.13" y2= "16113.41" />
   <line class="fil2 str0" x1="11807.13" y1="16113.41" x2="11807.13" y2= "16429.34" />
   <line class="fil2 str0" x1="12579.36" y1="16586.59" x2="12289.16" y2= "16683.45" />
   <line class="fil2 str0" x1="12199.22" y1="16581.38" x2="12289.16" y2= "16683.45" />
   <line class="fil2 str0" x1="12511.91" y1="16194.08" x2="12221.71" y2= "16290.96" />
   <line class="fil2 str0" x1="12289.16" y1="16683.45" x2="12221.71" y2= "16290.96" />
   <line class="fil2 str0" x1="12511.91" y1="16194.08" x2="12579.36" y2= "16586.59" />
   <line class="fil2 str0" x1="12221.71" y1="16290.96" x2="12221.71" y2= "15975.01" />
   <line class="fil2 str0" x1="12199.22" y1="15949.5" x2="12221.71" y2= "15975.01" />
   <line class="fil2 str0" x1="12221.71" y1="15975.01" x2="12511.91" y2= "15878.15" />
   <line class="fil2 str0" x1="12489.43" y1="15852.63" x2="12511.91" y2= "15878.15" />
   <line class="fil2 str0" x1="12511.91" y1="15878.15" x2="12511.91" y2= "16194.08" />
   <line class="fil2 str0" x1="526.97" y1="9941.41" x2="7946.26" y2= "18362.4" />
   <line class="fil2 str0" x1="7946.26" y1="18362.4" x2="16237.88" y2= "15594.71" />
   <line class="fil2 str0" x1="16365.77" y1="15618.06" x2="7908.32" y2= "18441.12" />
   <line class="fil2 str0" x1="16237.88" y1="15472.91" x2="16365.77" y2= "15618.06" />
   <line class="fil2 str0" x1="399.09" y1="9918.04" x2="526.97" y2= "9875.36" />
   <line class="fil2 str0" x1="7908.32" y1="18441.12" x2="399.09" y2= "9918.04" />
   <line class="fil2 str0" x1="399.09" y1="10289.74" x2="399.09" y2= "9918.04" />
   <line class="fil2 str0" x1="399.09" y1="10289.74" x2="7908.32" y2= "18812.8" />
   <line class="fil2 str0" x1="7908.32" y1="18812.8" x2="7908.32" y2= "18441.12" />
   <line class="fil2 str0" x1="16365.77" y1="15989.75" x2="16365.77" y2= "15618.06" />
   <line class="fil2 str0" x1="7908.32" y1="18812.8" x2="16365.77" y2= "15989.75" />
   <line class="fil2 str0" x1="7946.26" y1="16941.67" x2="7946.26" y2= "18362.4" />
   <line class="fil2 str0" x1="526.97" y1="8576.41" x2="526.97" y2= "9941.41" />
   <line class="fil2 str0" x1="16237.88" y1="14173.97" x2="16237.88" y2= "15594.71" />
   <line class="fil2 str0" x1="7908.32" y1="16954.34" x2="16365.77" y2= "14131.28" />
   <line class="fil2 str0" x1="399.09" y1="8431.26" x2="7908.32" y2= "16954.34" />
   <line class="fil2 str0" x1="399.09" y1="8431.26" x2="399.09" y2= "8059.57" />
   <line class="fil2 str0" x1="7908.32" y1="16954.34" x2="7908.32" y2= "16582.64" />
   <line class="fil2 str0" x1="7908.32" y1="16582.64" x2="399.09" y2= "8059.57" />
   <line class="fil2 str0" x1="399.09" y1="8059.57" x2="805.22" y2= "7924.01" />
   <line class="fil2 str0" x1="942.35" y1="7878.24" x2="8723.72" y2= "5280.86" />
   <line class="fil2 str0" x1="16365.77" y1="14131.28" x2="16365.77" y2= "13759.59" />
   <line class="fil2 str0" x1="14610.67" y1="11767.54" x2="16365.77" y2= "13759.59" />
   <line class="fil2 str0" x1="16365.77" y1="13759.59" x2="7908.32" y2= "16582.64" />
   <line class="fil2 str0" x1="14173.6" y1="12113.68" x2="13035.35" y2= "10821.75" />
   <path class="fil2 str0" d="M8617.9 7388.61l3088.17 3505.12m253.07 287.26l1138.23 1291.94"/>
   <line class="fil2 str0" x1="6787.05" y1="14579.27" x2="6692.18" y2= "14471.59" />
   <line class="fil2 str0" x1="14249.51" y1="12088.35" x2="6787.05" y2= "14579.27" />
   <line class="fil2 str0" x1="13111.26" y1="10796.41" x2="14249.51" y2= "12088.35" />
   <line class="fil2 str0" x1="15262.18" y1="1502.58" x2="11168.65" y2= "1582.83" />
   <line class="fil2 str0" x1="15339.2" y1="1265.21" x2="10964.39" y2= "1350.98" />
   <line class="fil2 str0" x1="11026.29" y1="7628.99" x2="15365.7" y2= "2290.01" />
   <line class="fil2 str0" x1="11157.34" y1="7841.63" x2="15594.77" y2= "2382.05" />
   <line class="fil2 str1" x1="8617.9" y1="5988.93" x2="8617.9" y2= "7388.61" />
  </g>
 </g>
 <g id="Lamps">
  <metadata id="CorelCorpID_1Corel-Layer"/>
  <g id="_934419040">
   <g>
    <path class="fil3" d="M6400.19 14072.95l203.11 230.54 6504.38 -2171.14c14.39,-4.81 22.63,-25.78 22.63,-57.65 0,-43.89 -15.56,-101.41 -39.79,-146.91 -24.23,-45.48 -52.58,-70.47 -72.44,-63.84l-6617.89 2209z"/>
    <path class="fil3" d="M5950.54 13562.58l203.11 230.53 6504.38 -2171.14c14.39,-4.8 22.64,-25.78 22.64,-57.65 0,-43.89 -15.56,-101.4 -39.8,-146.9 -24.23,-45.49 -52.58,-70.48 -72.44,-63.85l-6617.89 2209.01z"/>
    <path class="fil3" d="M5051.22 12541.85l203.11 230.54 6504.38 -2171.14c14.39,-4.81 22.63,-25.78 22.63,-57.65 0,-43.89 -15.56,-101.41 -39.79,-146.91 -24.23,-45.48 -52.58,-70.47 -72.44,-63.84l-6617.89 2209z"/>
    <path class="fil3" d="M4151.91 11521.13l203.1 230.53 6504.38 -2171.14c14.4,-4.8 22.64,-25.78 22.64,-57.65 0,-43.89 -15.56,-101.4 -39.79,-146.9 -24.23,-45.49 -52.58,-70.48 -72.45,-63.85l-6617.88 2209.01z"/>
    <path class="fil3" d="M4601.58 12031.48l203.11 230.53 6504.38 -2171.14c14.39,-4.8 22.64,-25.78 22.64,-57.65 0,-43.89 -15.56,-101.4 -39.8,-146.9 -24.23,-45.49 -52.58,-70.48 -72.44,-63.85l-6617.89 2209.01z"/>
    <path class="fil3" d="M3702.26 11010.76l203.11 230.54 6504.38 -2171.14c14.39,-4.81 22.63,-25.78 22.63,-57.65 0,-43.89 -15.56,-101.41 -39.79,-146.91 -24.23,-45.49 -52.58,-70.48 -72.44,-63.84l-6617.89 2209z"/>
    <path class="fil3" d="M3252.6 10500.4l203.1 230.53 6504.38 -2171.14c14.4,-4.81 22.64,-25.78 22.64,-57.65 0,-43.89 -15.56,-101.41 -39.79,-146.91 -24.23,-45.49 -52.58,-70.48 -72.45,-63.84l-6617.88 2209z"/>
    <path class="fil3" d="M2802.95 9990.03l203.11 230.54 6504.37 -2171.14c14.4,-4.81 22.64,-25.78 22.64,-57.65 0,-43.89 -15.56,-101.41 -39.79,-146.91 -24.23,-45.48 -52.58,-70.47 -72.44,-63.84l-6617.89 2209z"/>
    <path class="fil3" d="M2353.28 9479.72l203.1 230.54 6504.38 -2171.14c14.4,-4.81 22.64,-25.78 22.64,-57.65 0,-43.89 -15.56,-101.41 -39.79,-146.91 -24.23,-45.48 -52.58,-70.47 -72.45,-63.84l-6617.88 2209z"/>
   </g>
   <g>
    <path class="fil2 str0" d="M13130.33 12074.7c0,31.85 -8.25,52.84 -22.65,57.65"/>
    <path class="fil2 str0" d="M13018.08 11863.94c19.85,-6.63 48.22,18.37 72.44,63.85 24.23,45.49 39.81,103 39.81,146.91"/>
    <line class="fil2 str0" x1="6400.19" y1="14072.95" x2="13018.08" y2= "11863.94" />
    <line class="fil2 str0" x1="6603.29" y1="14303.47" x2="13107.68" y2= "12132.35" />
    <line class="fil2 str1" x1="6400.19" y1="14072.95" x2="6603.3" y2= "14303.48" />
   </g>
   <g>
    <path class="fil2 str0" d="M12680.68 11564.32c0,31.85 -8.24,52.84 -22.65,57.65"/>
    <path class="fil2 str0" d="M12568.43 11353.56c19.85,-6.63 48.22,18.37 72.44,63.86 24.23,45.49 39.81,102.99 39.81,146.9"/>
    <line class="fil2 str0" x1="5950.54" y1="13562.58" x2="12568.43" y2= "11353.56" />
    <line class="fil2 str0" x1="6153.64" y1="13793.1" x2="12658.03" y2= "11621.97" />
    <line class="fil2 str1" x1="5950.54" y1="13562.58" x2="6153.65" y2= "13793.11" />
   </g>
   <g>
    <path class="fil2 str0" d="M11781.37 10543.6c0,31.86 -8.25,52.84 -22.65,57.66"/>
    <path class="fil2 str0" d="M11669.12 10332.84c19.85,-6.63 48.22,18.37 72.44,63.85 24.23,45.49 39.81,103 39.81,146.9"/>
    <line class="fil2 str0" x1="5051.22" y1="12541.85" x2="11669.12" y2= "10332.84" />
    <line class="fil2 str0" x1="5254.33" y1="12772.38" x2="11758.72" y2= "10601.25" />
    <line class="fil2 str1" x1="5051.22" y1="12541.85" x2="5254.34" y2= "12772.39" />
   </g>
   <g>
    <path class="fil2 str0" d="M10882.04 9522.88c0,31.85 -8.24,52.84 -22.64,57.65"/>
    <path class="fil2 str0" d="M10769.8 9312.11c19.85,-6.63 48.22,18.37 72.44,63.85 24.23,45.49 39.81,103 39.81,146.91"/>
    <line class="fil2 str0" x1="4151.91" y1="11521.13" x2="10769.8" y2= "9312.11" />
    <line class="fil2 str0" x1="4355.01" y1="11751.65" x2="10859.4" y2= "9580.53" />
    <line class="fil2 str1" x1="4151.91" y1="11521.13" x2="4355.01" y2= "11751.66" />
   </g>
   <g>
    <path class="fil2 str0" d="M11331.72 10033.23c0,31.85 -8.24,52.84 -22.65,57.65"/>
    <path class="fil2 str0" d="M11219.47 9822.46c19.86,-6.63 48.22,18.37 72.44,63.85 24.23,45.49 39.81,103 39.81,146.91"/>
    <line class="fil2 str0" x1="4601.58" y1="12031.48" x2="11219.47" y2= "9822.46" />
    <line class="fil2 str0" x1="4804.68" y1="12262" x2="11309.07" y2= "10090.88" />
    <line class="fil2 str1" x1="4601.58" y1="12031.48" x2="4804.69" y2= "12262.01" />
   </g>
   <g>
    <path class="fil2 str0" d="M10432.4 9012.5c0,31.86 -8.25,52.84 -22.65,57.66"/>
    <path class="fil2 str0" d="M10320.15 8801.74c19.85,-6.63 48.22,18.38 72.44,63.86 24.23,45.49 39.81,103 39.81,146.9"/>
    <line class="fil2 str0" x1="3702.26" y1="11010.76" x2="10320.15" y2= "8801.74" />
    <line class="fil2 str0" x1="3905.37" y1="11241.28" x2="10409.75" y2= "9070.16" />
    <line class="fil2 str1" x1="3702.26" y1="11010.76" x2="3905.37" y2= "11241.29" />
   </g>
   <g>
    <path class="fil2 str0" d="M9982.73 8502.15c0,31.86 -8.24,52.84 -22.64,57.65"/>
    <path class="fil2 str0" d="M9870.49 8291.39c19.85,-6.63 48.21,18.38 72.44,63.86 24.23,45.49 39.81,103 39.81,146.9"/>
    <line class="fil2 str0" x1="3252.6" y1="10500.4" x2="9870.49" y2= "8291.39" />
    <line class="fil2 str0" x1="3455.7" y1="10730.93" x2="9960.09" y2= "8559.8" />
    <line class="fil2 str1" x1="3252.6" y1="10500.4" x2="3455.7" y2= "10730.93" />
   </g>
   <g>
    <path class="fil2 str0" d="M9533.09 7991.78c0,31.85 -8.25,52.84 -22.65,57.65"/>
    <path class="fil2 str0" d="M9420.84 7781.02c19.85,-6.63 48.22,18.37 72.44,63.85 24.23,45.49 39.81,103 39.81,146.91"/>
    <line class="fil2 str0" x1="2802.95" y1="9990.04" x2="9420.84" y2= "7781.02" />
    <line class="fil2 str0" x1="3006.05" y1="10220.56" x2="9510.44" y2= "8049.43" />
    <line class="fil2 str1" x1="2802.95" y1="9990.03" x2="3006.06" y2= "10220.57" />
   </g>
   <g>
    <path class="fil2 str0" d="M9083.42 7481.47c0,31.85 -8.24,52.84 -22.64,57.65"/>
    <path class="fil2 str0" d="M8971.18 7270.71c19.85,-6.63 48.21,18.37 72.44,63.85 24.23,45.49 39.81,103 39.81,146.91"/>
    <line class="fil2 str0" x1="2353.28" y1="9479.72" x2="8971.18" y2= "7270.71" />
    <line class="fil2 str0" x1="2556.39" y1="9710.25" x2="9060.78" y2= "7539.12" />
    <line class="fil2 str1" x1="2353.28" y1="9479.72" x2="2556.39" y2= "9710.25" />
   </g>
  </g>
 </g>
 <g id="PCB">
  <metadata id="CorelCorpID_2Corel-Layer"/>
  <g id="PCB-color">
   <polygon class="fil4" points="8375.14,5458.81 12871.69,10562.43 12871.69,10636.78 6652.98,12712.57 2156.43,7608.92 2156.43,7534.59 "/>
   <g>
    <path class="fil5" d="M8564.91 9885.03l0 -370.42c-0.74,20.12 -18.52,39.47 -49.34,49.76 -45.81,15.28 -103.05,4.82 -127.89,-23.36 -7.6,-8.63 -11.28,-17.92 -11.42,-27.09l0 371.1c0,20.47 17.51,39.41 46.08,49.89 28.57,10.46 63.98,10.9 93.22,1.15 30.4,-10.16 49.34,-29.75 49.34,-51.04z"/>
    <path class="fil5" d="M8553.51 9485.65c-24.83,-28.19 -82.08,-38.64 -127.88,-23.36 -31.47,10.5 -49.35,30.44 -49.37,51.03l0 0.61c0.14,9.17 3.82,18.46 11.42,27.09 24.83,28.19 82.08,38.64 127.89,23.36 30.82,-10.29 48.6,-29.64 49.34,-49.76l0.02 -1.29c0.02,-9.37 -3.66,-18.86 -11.43,-27.67z"/>
    <path class="fil5" d="M10518.21 10884.16l0 -370.42c-0.74,20.15 -18.52,39.47 -49.35,49.76 -45.8,15.28 -103.05,4.82 -127.88,-23.36 -7.39,-8.39 -11.09,-17.37 -11.4,-26.3l0 370.33c0,20.47 17.49,39.43 46.06,49.88 28.57,10.47 63.98,10.9 93.22,1.15 30.41,-10.16 49.35,-29.74 49.35,-51.03z"/>
    <path class="fil5" d="M10506.81 10484.78c-24.83,-28.17 -82.1,-38.63 -127.89,-23.34 -31.47,10.49 -49.34,30.44 -49.34,51.03l0 1.37c0.32,8.93 4.02,17.92 11.4,26.3 24.83,28.19 82.08,38.64 127.88,23.36 30.83,-10.29 48.61,-29.62 49.35,-49.76l0.02 -1.27c0.02,-9.37 -3.66,-18.88 -11.42,-27.69z"/>
    <polygon class="fil5" points="7668.74,7931.85 7623.77,7880.82 7623.77,7955.16 7668.74,8006.19 "/>
    <polygon class="fil5" points="7834.56,7876.49 7789.61,7825.46 7623.77,7880.82 7668.74,7931.85 "/>
    <polygon class="fil5" points="7834.56,7950.85 7834.56,7876.49 7668.74,7931.85 7668.74,8006.19 "/>
   </g>
   <g>
    <polygon class="fil6" points="9586.97,8282.25 9542,8231.22 9542,8305.55 9586.97,8356.59 "/>
    <polygon class="fil6" points="9542,8231.22 9586.97,8282.25 9752.79,8226.89 9707.83,8175.86 "/>
    <polygon class="fil6" points="9752.79,8226.89 9586.97,8282.25 9586.97,8356.59 9752.79,8301.23 "/>
    <polygon class="fil6" points="11670.21,9807.69 12344.69,10573.24 12344.69,10387.4 11670.21,9621.84 "/>
    <polygon class="fil6" points="11670.21,9621.84 12344.69,10387.4 12551.98,10318.21 11877.51,9552.65 "/>
    <polygon class="fil6" points="12551.98,10318.21 12344.69,10387.4 12344.69,10573.24 12551.98,10504.04 "/>
   </g>
   <g>
    <g>
     <path class="fil7" d="M6063.82 8308.89c-0.38,-2.11 -0.91,-4.04 -1.61,-5.89l-164.22 54.81 0 74.34 165.83 -55.36 0 -67.9z"/>
     <path class="fil7" d="M5898 8357.81l164.22 -54.81c-0.68,-1.81 -1.53,-3.54 -2.59,-5.31l-40.75 -46.26 -165.83 55.35 44.96 51.03z"/>
     <path class="fil7" d="M5898 8357.81l-44.96 -51.03 0 67.9c0.74,4.16 2.05,7.64 4.2,11.2l40.76 46.27 0 -74.34z"/>
     <path class="fil7" d="M6639.93 9199.9l0 67.9c0.74,4.16 2.05,7.64 4.2,11.2l40.76 46.26 0 -74.34 -44.96 -51.03z"/>
     <polygon class="fil7" points="6639.93,9199.9 6684.89,9250.93 6850.74,9195.6 6805.75,9144.54 "/>
     <polygon class="fil7" points="6850.74,9195.6 6684.89,9250.93 6684.89,9325.27 6850.74,9269.94 "/>
     <path class="fil7" d="M7640.32 11198.16c-45.8,15.28 -103.05,4.82 -127.88,-23.36 -7.39,-8.39 -11.09,-17.37 -11.4,-26.3l0 184.48c0,20.45 17.49,39.41 46.06,49.89 1.09,0.4 2.17,0.78 3.26,1.15 27.61,8.26 61.94,8.32 89.6,0.12 0.12,-0.04 0.24,-0.08 0.36,-0.12 30.41,-10.16 49.35,-29.75 49.35,-51.04l0 -184.58c-0.75,20.15 -18.52,39.47 -49.35,49.76z"/>
     <path class="fil7" d="M7529.51 11188.71c28.79,17.29 73.59,21.87 110.81,9.45 -37.49,12.51 -82.34,7.28 -110.81,-9.45zm160.16 -40.32c-0.75,20.15 -18.52,39.47 -49.35,49.76 30.83,-10.29 48.6,-29.62 49.35,-49.76zm-188.65 0.1l0.02 184.48c0,19.68 16.2,37.99 42.88,48.66 1.07,0.38 2.13,0.77 3.22,1.11 28.21,9.29 64.32,9.63 93.12,1.07 1.93,-0.57 3.82,-1.19 5.69,-1.83 27.09,-10.59 43.72,-29.05 43.72,-49l0 -184.58c0.02,-0.43 0.02,-0.85 0.02,-1.27 0.02,-9.37 -3.66,-18.88 -11.42,-27.69 -8.06,-9.15 -19.56,-16.43 -32.96,-21.58 -28.49,-9.81 -65.49,-10.42 -94.91,-1.69 -0.74,0.23 -1.49,0.44 -2.21,0.69 -29.6,10.5 -46.57,29.52 -47.15,49.26 -0.02,0.32 -0.02,0.66 -0.02,1.01l0 0.6c0,0.27 0.02,0.51 0,0.77zm11.28 26.44c4.61,5.19 10.44,9.81 17.21,13.78 -6.63,-3.98 -12.43,-8.63 -17.21,-13.78zm-11.26 -26.44c0.32,8.93 4.02,17.92 11.26,26.44 -6.81,-7.68 -10.9,-16.57 -11.26,-26.44z"/>
    </g>
    <path class="fil8" d="M6645.32 11530.28c-45.79,15.28 -103.05,4.82 -127.86,-23.35 -7.77,-8.81 -11.44,-18.32 -11.44,-27.69l0.02 185.86c0,20.47 17.51,39.41 46.08,49.88 1.08,0.4 2.19,0.78 3.3,1.15 27.56,8.27 61.83,8.31 89.48,0.15 0.14,-0.04 0.28,-0.11 0.42,-0.15 30.42,-10.15 49.37,-29.74 49.37,-51.03l0 -184.59c-0.74,20.15 -18.52,39.47 -49.37,49.77z"/>
    <path class="fil8" d="M6532.72 11519.74c28.69,18.17 74.59,23.22 112.6,10.54 30.84,-10.29 48.62,-29.62 49.37,-49.77l-11.4 -28.94c-14.82,-16.82 -41.2,-27.32 -69.79,-29.82 -19.86,-1.49 -40.36,0.91 -58.03,6.66 -5.96,1.93 -11.6,4.24 -16.79,6.89 -20.99,11.16 -32.61,27.33 -32.65,43.94 0,9.37 3.68,18.88 11.44,27.69 4.22,4.78 9.39,9.07 15.26,12.81z"/>
    <path class="fil8" d="M6837.71 11369.9l0 184.48c0,20.47 17.49,39.41 46.07,49.89 1.11,0.4 2.23,0.8 3.36,1.16 27.56,8.24 61.81,8.28 89.44,0.12 0.14,-0.04 0.28,-0.1 0.42,-0.14 30.4,-10.16 49.34,-29.75 49.34,-51.04l0 -184.57c-0.74,20.13 -18.51,39.47 -49.34,49.77 -45.8,15.28 -103.05,4.82 -127.89,-23.37 -7.38,-8.39 -11.08,-17.39 -11.4,-26.32z"/>
    <path class="fil8" d="M6884.68 11418.76c28.11,9.09 63.77,9.33 92.3,0.75 0.84,-0.27 1.69,-0.53 2.53,-0.78 29.28,-10.5 46.11,-29.32 46.83,-48.91l0 -1.27c-0.04,-4.04 -0.68,-7.92 -1.87,-11.62 -1.83,-5.47 -4.97,-10.9 -9.54,-16.06 -5.62,-6.4 -12.95,-11.89 -21.39,-16.37 -28.71,-14.88 -71.2,-18.78 -106.49,-7 -31.49,10.52 -49.35,30.45 -49.35,51.05l0 1.35c0.32,8.93 4.02,17.93 11.4,26.32 8.59,9.75 21.06,17.37 35.57,22.54z"/>
    <path class="fil8" d="M8871.72 7544.78l40.76 46.26 0 -74.34 -44.96 -51.03 0 67.9c0.74,4.16 2.05,7.64 4.2,11.2z"/>
    <path class="fil8" d="M8912.48 7516.71l164.23 -54.81c-0.68,-1.81 -1.53,-3.54 -2.59,-5.31l-40.78 -46.27 -165.83 55.36 44.96 51.03z"/>
    <path class="fil8" d="M9076.71 7461.9l-164.23 54.81 0 74.34 165.84 -55.35 0 -67.9c-0.38,-2.11 -0.91,-4.04 -1.61,-5.89z"/>
   </g>
   <g>
    <polygon class="fil6 str2" points="3565.19,8034.3 2904.83,7284.77 2890.72,7268.74 2476.14,7407.14 3150.61,8172.68 "/>
    <polygon class="fil6 str2" points="3150.61,8172.68 2476.14,7407.14 2476.14,7427.88 2476.14,7592.98 3150.61,8358.54 "/>
    <polygon class="fil6 str2" points="3565.19,8034.3 3150.61,8172.68 3150.61,8358.54 3565.19,8220.14 "/>
    <polygon class="fil6 str2" points="4611.99,9831.36 3600.27,8683.04 3600.27,8868.89 4611.99,10017.2 "/>
    <polygon class="fil6 str2" points="3600.27,8683.04 4611.99,9831.36 5026.57,9692.98 4014.86,8544.65 "/>
    <polygon class="fil6 str2" points="5026.57,9692.98 4611.99,9831.36 4611.99,10017.2 5026.57,9878.81 "/>
    <polygon class="fil6 str2" points="4024.61,7513.29 4092.05,7589.84 4092.05,7515.51 4024.61,7438.96 "/>
    <polygon class="fil6 str2" points="4024.61,7438.96 4092.05,7515.51 4299.34,7446.31 4231.9,7369.76 "/>
    <polygon class="fil6 str2" points="4299.34,7446.31 4092.05,7515.51 4092.05,7589.84 4299.34,7520.65 "/>
    <polygon class="fil6 str2" points="4392.66,7856.71 4325.22,7780.16 4325.22,7854.5 4392.66,7931.05 "/>
    <polygon class="fil6 str2" points="4325.22,7780.16 4392.66,7856.71 4599.97,7787.52 4532.51,7710.97 "/>
    <polygon class="fil6 str2" points="4599.97,7787.52 4392.66,7856.71 4392.66,7931.05 4599.97,7861.86 "/>
    <polygon class="fil6 str2" points="4713.92,7307.94 4921.21,7238.74 4853.77,7162.19 4646.48,7231.39 "/>
    <polygon class="fil6 str2" points="4713.92,7307.94 4646.48,7231.39 4646.48,7305.72 4713.92,7382.27 "/>
    <polygon class="fil6 str2" points="4921.21,7238.74 4713.92,7307.94 4713.92,7382.27 4921.21,7313.08 "/>
    <polygon class="fil6 str2" points="5154.38,7503.4 4947.09,7572.59 5014.55,7649.14 5221.83,7579.95 "/>
    <polygon class="fil6 str2" points="5014.55,7649.14 4947.09,7572.59 4947.09,7646.93 5014.55,7723.47 "/>
    <polygon class="fil6 str2" points="5221.83,7579.95 5014.55,7649.14 5014.55,7723.47 5221.83,7654.29 "/>
    <polygon class="fil6 str2" points="5268.35,7098.15 5335.79,7174.7 5335.79,7100.36 5268.35,7023.81 "/>
    <polygon class="fil6 str2" points="5268.35,7023.81 5335.79,7100.36 5543.08,7031.18 5475.64,6954.62 "/>
    <polygon class="fil6 str2" points="5543.08,7031.18 5335.79,7100.36 5335.79,7174.7 5543.08,7105.51 "/>
    <polygon class="fil6 str2" points="5636.42,7441.57 5568.98,7365.02 5568.98,7439.35 5636.42,7515.9 "/>
    <polygon class="fil6 str2" points="5568.98,7365.02 5636.42,7441.57 5843.71,7372.38 5776.27,7295.83 "/>
    <polygon class="fil6 str2" points="5843.71,7372.38 5636.42,7441.57 5636.42,7515.9 5843.71,7446.72 "/>
    <polygon class="fil6 str2" points="5957.66,6892.77 6164.97,6823.58 6097.5,6747.03 5890.21,6816.22 "/>
    <polygon class="fil6 str2" points="5957.66,6892.77 5890.21,6816.22 5890.21,6890.56 5957.66,6967.13 "/>
    <polygon class="fil6 str2" points="6164.97,6823.58 5957.66,6892.77 5957.66,6967.13 6164.97,6897.94 "/>
    <polygon class="fil6 str2" points="6258.29,7234 6190.83,7157.43 6190.83,7231.77 6258.29,7308.34 "/>
    <polygon class="fil6 str2" points="6190.83,7157.43 6258.29,7234 6465.58,7164.78 6398.13,7088.23 "/>
    <polygon class="fil6 str2" points="6465.58,7164.78 6258.29,7234 6258.29,7308.34 6465.58,7239.14 "/>
    <polygon class="fil6 str2" points="6812.71,6949.86 6880.15,7026.41 7087.44,6957.21 7020.01,6880.66 "/>
    <polygon class="fil6 str2" points="6880.15,7026.41 6812.71,6949.86 6812.71,7024.19 6880.15,7100.74 "/>
    <polygon class="fil6 str2" points="7087.44,6957.21 6880.15,7026.41 6880.15,7100.74 7087.44,7031.56 "/>
    <polygon class="fil6 str2" points="6579.55,6759.54 6579.55,6685.2 6512.09,6608.65 6512.09,6682.99 "/>
    <polygon class="fil6 str2" points="6579.55,6685.2 6786.84,6616.01 6719.38,6539.46 6512.09,6608.65 "/>
    <polygon class="fil6 str2" points="6786.84,6616.01 6579.55,6685.2 6579.55,6759.54 6786.84,6690.34 "/>
    <polygon class="fil6 str2" points="7133.96,6475.42 7201.41,6551.97 7201.41,6477.63 7133.96,6401.07 "/>
    <polygon class="fil6 str2" points="7133.96,6401.07 7201.41,6477.63 7408.7,6408.44 7341.24,6331.87 "/>
    <polygon class="fil6 str2" points="7408.7,6408.44 7201.41,6477.63 7201.41,6551.97 7408.7,6482.78 "/>
    <polygon class="fil6 str2" points="7755.82,6193.49 7823.28,6270.06 8030.58,6200.86 7963.14,6124.3 "/>
    <polygon class="fil6 str2" points="7823.28,6270.06 7755.82,6193.49 7755.82,6267.82 7823.28,6344.4 "/>
    <polygon class="fil6 str2" points="8030.58,6200.86 7823.28,6270.06 7823.28,6344.4 8030.58,6275.18 "/>
    <polygon class="fil6 str2" points="7502.03,6818.84 7434.59,6742.29 7434.59,6816.62 7502.03,6893.17 "/>
    <polygon class="fil6 str2" points="7434.59,6742.29 7502.03,6818.84 7709.32,6749.65 7641.87,6673.07 "/>
    <polygon class="fil6 str2" points="7709.32,6749.65 7502.03,6818.84 7502.03,6893.17 7709.32,6823.98 "/>
    <polygon class="fil6 str2" points="8056.45,6534.69 8123.89,6611.26 8331.18,6542.08 8263.74,6465.5 "/>
    <polygon class="fil6 str2" points="8123.89,6611.26 8056.45,6534.69 8056.45,6609.03 8123.89,6685.6 "/>
    <polygon class="fil6 str2" points="8331.18,6542.08 8123.89,6611.26 8123.89,6685.6 8331.18,6616.39 "/>
    <polygon class="fil6 str2" points="8377.71,6060.25 8445.16,6136.8 8445.16,6062.46 8377.71,5985.92 "/>
    <polygon class="fil6 str2" points="8377.71,5985.92 8445.16,6062.46 8652.44,5993.28 8585,5916.73 "/>
    <polygon class="fil6 str2" points="8652.44,5993.28 8445.16,6062.46 8445.16,6136.8 8652.44,6067.61 "/>
    <polygon class="fil6 str2" points="8745.76,6403.67 8678.32,6327.12 8678.32,6401.46 8745.76,6478.01 "/>
    <polygon class="fil6 str2" points="8678.32,6327.12 8745.76,6403.67 8953.05,6334.48 8885.61,6257.93 "/>
    <polygon class="fil6 str2" points="8953.05,6334.48 8745.76,6403.67 8745.76,6478.01 8953.05,6408.82 "/>
   </g>
   <g>
    <path class="fil9" d="M6235.24 8814.92l0 -74.34 -44.96 -51.03 0 67.9c0.75,4.16 2.05,7.64 4.21,11.2l40.75 46.26z"/>
    <polygon class="fil9" points="6235.24,8740.58 6401.07,8685.23 6356.11,8634.19 6190.28,8689.55 "/>
    <polygon class="fil9" points="6401.07,8685.23 6235.24,8740.58 6235.24,8814.92 6401.07,8759.56 "/>
    <polygon class="fil9" points="6286.9,10358.72 5949.66,9975.96 5949.66,10013.13 6286.9,10395.9 "/>
    <polygon class="fil9" points="5949.66,9975.96 6286.9,10358.72 6908.77,10151.15 6571.52,9768.39 "/>
    <polygon class="fil9" points="6908.77,10151.15 6286.9,10358.72 6286.9,10395.9 6908.77,10188.33 "/>
    <path class="fil9" d="M7313.66 11208.57c-28.47,-9.81 -65.49,-10.43 -94.91,-1.71 -0.74,0.22 -1.51,0.44 -2.25,0.68 -29.62,10.54 -46.59,29.58 -47.13,49.33 -0.02,0.32 -0.02,0.65 -0.02,0.96l0 0.57c0.15,9.17 3.82,18.48 11.43,27.1 24.85,28.19 82.09,38.65 127.88,23.37 30.84,-10.29 48.62,-29.64 49.37,-49.79l0.02 -1.25c0.02,-9.37 -3.66,-18.88 -11.43,-27.68 -8.06,-9.15 -19.54,-16.43 -32.95,-21.58z"/>
    <path class="fil9" d="M7308.65 11308.87c-45.79,15.28 -103.03,4.82 -127.88,-23.37 -7.6,-8.62 -11.28,-17.93 -11.43,-27.1l0.02 185.28c0,20.47 17.51,39.43 46.08,49.88 1.15,0.42 2.31,0.82 3.47,1.2 27.47,8.19 61.51,8.25 89.06,0.16 0.23,-0.08 0.44,-0.14 0.66,-0.22 30.42,-10.13 49.37,-29.74 49.37,-51.03l0 -184.59c-0.74,20.15 -18.52,39.49 -49.37,49.79z"/>
    <path class="fil9" d="M7844.1 11064.1c24.83,28.18 82.1,38.63 127.89,23.35 30.84,-10.29 48.61,-29.62 49.36,-49.76l0.02 -1.27c-0.04,-2.97 -0.38,-5.85 -1.04,-8.62 -1.59,-6.5 -4.99,-12.93 -10.38,-19.05 -5.01,-5.67 -11.32,-10.62 -18.59,-14.8 -28.57,-16.09 -72.57,-20.83 -109.3,-8.57 -31.49,10.5 -49.35,30.44 -49.37,51.03l0 1.37c0.32,8.93 4.02,17.94 11.4,26.32z"/>
    <path class="fil9" d="M7832.69 11037.78c0,-0.26 -0.02,-0.52 -0.02,-0.78l0.02 0.78zm188.65 -0.1c-0.74,20.15 -18.51,39.47 -49.36,49.76 -45.79,15.29 -103.05,4.83 -127.89,-23.35 -7.38,-8.38 -11.08,-17.39 -11.43,-26.32l0.02 184.49c0,20.44 17.51,39.41 46.07,49.88 1.04,0.38 2.11,0.77 3.19,1.12 27.59,8.29 61.92,8.35 89.6,0.16 0.15,-0.04 0.28,-0.1 0.43,-0.14 30.42,-10.16 49.36,-29.74 49.36,-51.03l0 -184.59z"/>
   </g>
   <g>
    <path class="fil10" d="M9245.12 8619.53l-562.08 -637.96 -1036.45 345.98 562.07 637.93 1036.47 -345.96zm-479.56 -87.59l-414.59 138.38 -224.82 -255.18 0 -37.16 414.58 -138.4 224.82 255.18 0 37.18z"/>
    <polygon class="fil10" points="9245.12,8619.53 8208.65,8965.49 8208.65,9039.82 9245.12,8693.87 "/>
    <polygon class="fil10" points="8208.65,8965.49 7646.58,8327.56 7646.58,8401.87 8208.65,9039.82 "/>
   </g>
   <g>
    <polygon class="fil9" points="8765.55,8494.76 8540.73,8239.58 8126.15,8377.98 8350.97,8633.15 "/>
    <polygon class="fil9" points="8765.55,8494.76 8350.97,8633.15 8350.97,8670.33 8765.55,8531.94 "/>
    <polygon class="fil9" points="8350.97,8633.15 8126.15,8377.98 8126.15,8415.14 8350.97,8670.33 "/>
   </g>
  </g>
  <g id="PCB-abris">
   <line class="fil2 str0" x1="8723.72" y1="5512.02" x2="8748.82" y2= "5540.51" />
   <line class="fil2 str0" x1="6639.93" y1="9274.25" x2="6684.9" y2= "9325.28" />
   <line class="fil2 str0" x1="6684.9" y1="9325.28" x2="6850.73" y2= "9269.92" />
   <line class="fil2 str0" x1="5853.03" y1="8381.11" x2="5898" y2= "8432.15" />
   <line class="fil2 str0" x1="5898" y1="8432.15" x2="6063.83" y2= "8376.79" />
   <path class="fil2 str0" d="M8515.56 9936.06c-29.23,9.75 -64.65,9.33 -93.21,-1.15 -28.57,-10.46 -46.08,-29.42 -46.08,-49.89"/>
   <path class="fil2 str0" d="M8564.92 9885.02c0,21.3 -18.94,40.89 -49.36,51.04"/>
   <path class="fil2 str0" d="M10468.86 10935.2c-29.23,9.75 -64.64,9.32 -93.21,-1.16 -28.57,-10.46 -46.08,-29.41 -46.08,-49.88"/>
   <path class="fil2 str0" d="M10518.22 10884.16c0,21.29 -18.95,40.88 -49.37,51.04"/>
   <line class="fil2 str0" x1="6190.27" y1="8763.89" x2="6235.24" y2= "8814.92" />
   <line class="fil2 str0" x1="6235.24" y1="8814.92" x2="6401.07" y2= "8759.56" />
   <line class="fil2 str0" x1="9245.11" y1="8693.87" x2="8208.65" y2= "9039.83" />
   <line class="fil2 str0" x1="8208.65" y1="9039.83" x2="7646.59" y2= "8401.88" />
   <line class="fil2 str0" x1="7623.77" y1="7955.16" x2="7668.74" y2= "8006.2" />
   <line class="fil2 str0" x1="7668.74" y1="8006.2" x2="7834.57" y2= "7950.84" />
   <line class="fil2 str0" x1="12871.68" y1="10562.45" x2="8375.14" y2= "5458.81" />
   <line class="fil2 str0" x1="8375.14" y1="5458.81" x2="2904.83" y2= "7284.77" />
   <line class="fil2 str0" x1="2476.13" y1="7427.87" x2="2156.43" y2= "7534.58" />
   <line class="fil2 str0" x1="2156.43" y1="7534.58" x2="6652.97" y2= "12638.21" />
   <line class="fil2 str0" x1="6652.97" y1="12638.21" x2="12871.68" y2= "10562.45" />
   <line class="fil2 str0" x1="8912.48" y1="7591.05" x2="8867.52" y2= "7540.01" />
   <line class="fil2 str0" x1="9078.31" y1="7535.69" x2="8912.48" y2= "7591.05" />
   <line class="fil2 str0" x1="9586.97" y1="8356.59" x2="9542" y2= "8305.55" />
   <line class="fil2 str0" x1="9752.79" y1="8301.24" x2="9586.97" y2= "8356.59" />
   <line class="fil2 str0" x1="12344.69" y1="10573.24" x2="11670.21" y2= "9807.69" />
   <line class="fil2 str0" x1="12551.98" y1="10504.05" x2="12344.69" y2= "10573.24" />
   <line class="fil2 str0" x1="3150.61" y1="8358.53" x2="2476.13" y2= "7592.98" />
   <line class="fil2 str0" x1="3565.2" y1="8220.14" x2="3150.61" y2= "8358.53" />
   <line class="fil2 str0" x1="4611.99" y1="10017.2" x2="3600.27" y2= "8868.89" />
   <line class="fil2 str0" x1="5026.57" y1="9878.82" x2="4611.99" y2= "10017.2" />
   <line class="fil2 str0" x1="6286.9" y1="10395.9" x2="5949.66" y2= "10013.13" />
   <line class="fil2 str0" x1="6908.77" y1="10188.32" x2="6286.9" y2= "10395.9" />
   <line class="fil2 str0" x1="8745.77" y1="6478.02" x2="8953.06" y2= "6408.82" />
   <line class="fil2 str0" x1="8678.33" y1="6401.46" x2="8745.77" y2= "6478.02" />
   <line class="fil2 str0" x1="7502.03" y1="6893.17" x2="7709.32" y2= "6823.98" />
   <line class="fil2 str0" x1="7434.58" y1="6816.61" x2="7502.03" y2= "6893.17" />
   <line class="fil2 str0" x1="7823.28" y1="6344.39" x2="8030.57" y2= "6275.19" />
   <line class="fil2 str0" x1="7755.83" y1="6267.83" x2="7823.28" y2= "6344.39" />
   <line class="fil2 str0" x1="6579.54" y1="6759.54" x2="6786.83" y2= "6690.35" />
   <line class="fil2 str0" x1="6512.09" y1="6682.99" x2="6579.54" y2= "6759.54" />
   <line class="fil2 str0" x1="4392.67" y1="7931.05" x2="4599.96" y2= "7861.87" />
   <line class="fil2 str0" x1="4325.22" y1="7854.51" x2="4392.67" y2= "7931.05" />
   <line class="fil2 str0" x1="4713.92" y1="7382.27" x2="4921.21" y2= "7313.08" />
   <line class="fil2 str0" x1="4646.47" y1="7305.72" x2="4713.92" y2= "7382.27" />
   <line class="fil2 str0" x1="6880.16" y1="7100.75" x2="7087.45" y2= "7031.56" />
   <line class="fil2 str0" x1="6812.71" y1="7024.19" x2="6880.16" y2= "7100.75" />
   <line class="fil2 str0" x1="5636.41" y1="7515.9" x2="5843.7" y2= "7446.72" />
   <line class="fil2 str0" x1="5568.97" y1="7439.35" x2="5636.41" y2= "7515.9" />
   <path class="fil2 str0" d="M7971.98 11273.3c-29.23,9.75 -64.65,9.32 -93.21,-1.15 -28.57,-10.47 -46.08,-29.43 -46.08,-49.89"/>
   <path class="fil2 str0" d="M8021.34 11222.26c0,21.29 -18.94,40.89 -49.36,51.04"/>
   <path class="fil2 str0" d="M7308.65 11494.72c-29.23,9.75 -64.64,9.32 -93.21,-1.15 -28.57,-10.47 -46.08,-29.42 -46.08,-49.89"/>
   <path class="fil2 str0" d="M7358.01 11443.68c0,21.29 -18.94,40.89 -49.36,51.04"/>
   <path class="fil2 str0" d="M6645.33 11716.13c-29.23,9.75 -64.65,9.32 -93.21,-1.15 -28.57,-10.47 -46.08,-29.42 -46.08,-49.89"/>
   <path class="fil2 str0" d="M6694.68 11665.09c0,21.3 -18.94,40.89 -49.36,51.04"/>
   <path class="fil2 str0" d="M6976.99 11605.42c-29.24,9.75 -64.65,9.32 -93.22,-1.15 -28.57,-10.47 -46.08,-29.42 -46.08,-49.89"/>
   <path class="fil2 str0" d="M7026.34 11554.38c0,21.29 -18.94,40.89 -49.35,51.04"/>
   <path class="fil2 str0" d="M7640.32 11384.01c-29.22,9.75 -64.64,9.32 -93.2,-1.15 -28.57,-10.47 -46.08,-29.42 -46.08,-49.89"/>
   <path class="fil2 str0" d="M7689.68 11332.97c0,21.29 -18.95,40.89 -49.37,51.04"/>
   <line class="fil2 str0" x1="5957.66" y1="6967.12" x2="6164.95" y2= "6897.93" />
   <line class="fil2 str0" x1="5890.21" y1="6890.57" x2="5957.66" y2= "6967.12" />
   <line class="fil2 str0" x1="6258.29" y1="7308.32" x2="6465.58" y2= "7239.14" />
   <line class="fil2 str0" x1="6190.84" y1="7231.77" x2="6258.29" y2= "7308.32" />
   <line class="fil2 str0" x1="4092.05" y1="7589.85" x2="4299.34" y2= "7520.66" />
   <line class="fil2 str0" x1="4024.61" y1="7513.3" x2="4092.05" y2= "7589.85" />
   <line class="fil2 str0" x1="5335.8" y1="7174.7" x2="5543.09" y2= "7105.5" />
   <line class="fil2 str0" x1="5268.34" y1="7098.14" x2="5335.8" y2= "7174.7" />
   <line class="fil2 str0" x1="5014.55" y1="7723.48" x2="5221.83" y2= "7654.29" />
   <line class="fil2 str0" x1="4947.09" y1="7646.93" x2="5014.55" y2= "7723.48" />
   <line class="fil2 str0" x1="7201.41" y1="6551.96" x2="7408.69" y2= "6482.77" />
   <line class="fil2 str0" x1="7133.96" y1="6475.41" x2="7201.41" y2= "6551.96" />
   <line class="fil2 str0" x1="8445.15" y1="6136.81" x2="8652.44" y2= "6067.62" />
   <line class="fil2 str0" x1="8377.71" y1="6060.26" x2="8445.15" y2= "6136.81" />
   <line class="fil2 str0" x1="8123.89" y1="6685.6" x2="8331.19" y2= "6616.4" />
   <line class="fil2 str0" x1="8056.45" y1="6609.04" x2="8123.89" y2= "6685.6" />
   <line class="fil2 str0" x1="6571.53" y1="9768.39" x2="5949.66" y2= "9975.96" />
   <line class="fil2 str0" x1="5949.66" y1="9975.96" x2="6286.9" y2= "10358.73" />
   <line class="fil2 str0" x1="6286.9" y1="10358.73" x2="6908.77" y2= "10151.16" />
   <line class="fil2 str0" x1="6908.77" y1="10151.16" x2="6571.53" y2= "9768.39" />
   <line class="fil2 str0" x1="6286.9" y1="10395.9" x2="6286.9" y2= "10358.73" />
   <line class="fil2 str0" x1="5949.66" y1="10013.13" x2="5949.66" y2= "9975.96" />
   <line class="fil2 str0" x1="6908.77" y1="10188.32" x2="6908.77" y2= "10151.16" />
   <line class="fil2 str0" x1="4611.99" y1="9831.36" x2="5026.57" y2= "9692.97" />
   <line class="fil2 str0" x1="5026.57" y1="9692.97" x2="4014.85" y2= "8544.65" />
   <line class="fil2 str0" x1="4014.85" y1="8544.65" x2="3600.27" y2= "8683.05" />
   <line class="fil2 str0" x1="3600.27" y1="8683.05" x2="4611.99" y2= "9831.36" />
   <line class="fil2 str0" x1="3600.27" y1="8683.05" x2="3600.27" y2= "8868.89" />
   <line class="fil2 str0" x1="4611.99" y1="9831.36" x2="4611.99" y2= "10017.2" />
   <line class="fil2 str0" x1="5026.57" y1="9692.97" x2="5026.57" y2= "9878.82" />
   <line class="fil2 str0" x1="3150.61" y1="8172.68" x2="3565.2" y2= "8034.29" />
   <line class="fil2 str0" x1="3565.2" y1="8034.29" x2="2890.72" y2= "7268.75" />
   <line class="fil2 str0" x1="2890.72" y1="7268.75" x2="2476.13" y2= "7407.14" />
   <line class="fil2 str0" x1="2476.13" y1="7407.14" x2="3150.61" y2= "8172.68" />
   <line class="fil2 str0" x1="2476.13" y1="7407.14" x2="2476.13" y2= "7592.98" />
   <line class="fil2 str0" x1="3150.61" y1="8172.68" x2="3150.61" y2= "8358.53" />
   <line class="fil2 str0" x1="3565.2" y1="8034.29" x2="3565.2" y2= "8220.14" />
   <line class="fil2 str0" x1="12344.69" y1="10387.39" x2="12551.98" y2= "10318.2" />
   <line class="fil2 str0" x1="12551.98" y1="10318.2" x2="11877.5" y2= "9552.65" />
   <line class="fil2 str0" x1="11877.5" y1="9552.65" x2="11670.21" y2= "9621.84" />
   <line class="fil2 str0" x1="11670.21" y1="9621.84" x2="12344.69" y2= "10387.39" />
   <line class="fil2 str0" x1="11670.21" y1="9621.84" x2="11670.21" y2= "9807.69" />
   <line class="fil2 str0" x1="12344.69" y1="10387.39" x2="12344.69" y2= "10573.24" />
   <line class="fil2 str0" x1="12551.98" y1="10318.2" x2="12551.98" y2= "10504.05" />
   <line class="fil2 str0" x1="9542" y1="8231.22" x2="9707.83" y2= "8175.86" />
   <line class="fil2 str0" x1="9586.97" y1="8282.25" x2="9542" y2= "8231.22" />
   <line class="fil2 str0" x1="9752.79" y1="8226.89" x2="9586.97" y2= "8282.25" />
   <line class="fil2 str0" x1="9707.83" y1="8175.86" x2="9752.79" y2= "8226.89" />
   <line class="fil2 str0" x1="9586.97" y1="8282.25" x2="9586.97" y2= "8356.59" />
   <line class="fil2 str0" x1="9542" y1="8231.22" x2="9542" y2= "8305.55" />
   <line class="fil2 str0" x1="9752.79" y1="8226.89" x2="9752.79" y2= "8301.24" />
   <line class="fil2 str0" x1="8867.52" y1="7465.66" x2="9033.35" y2= "7410.31" />
   <line class="fil2 str0" x1="8912.48" y1="7516.7" x2="8867.52" y2= "7465.66" />
   <line class="fil2 str0" x1="9078.31" y1="7461.35" x2="8912.48" y2= "7516.7" />
   <line class="fil2 str0" x1="9033.35" y1="7410.31" x2="9078.31" y2= "7461.35" />
   <line class="fil2 str0" x1="8912.48" y1="7516.7" x2="8912.48" y2= "7591.05" />
   <line class="fil2 str0" x1="8867.52" y1="7465.66" x2="8867.52" y2= "7540.01" />
   <line class="fil2 str0" x1="9078.31" y1="7461.35" x2="9078.31" y2= "7535.69" />
   <line class="fil2 str0" x1="12871.68" y1="10636.78" x2="6652.97" y2= "12712.56" />
   <line class="fil2 str0" x1="6652.97" y1="12712.56" x2="2156.43" y2= "7608.92" />
   <line class="fil2 str0" x1="6652.97" y1="12638.21" x2="6652.97" y2= "12712.56" />
   <line class="fil2 str0" x1="12871.68" y1="10562.45" x2="12871.68" y2= "10636.78" />
   <line class="fil2 str0" x1="2156.43" y1="7534.58" x2="2156.43" y2= "7608.92" />
   <line class="fil2 str0" x1="7623.77" y1="7880.82" x2="7789.61" y2= "7825.47" />
   <line class="fil2 str0" x1="7668.74" y1="7931.86" x2="7623.77" y2= "7880.82" />
   <line class="fil2 str0" x1="7834.57" y1="7876.5" x2="7668.74" y2= "7931.86" />
   <line class="fil2 str0" x1="7789.61" y1="7825.47" x2="7834.57" y2= "7876.5" />
   <line class="fil2 str0" x1="7668.74" y1="7931.86" x2="7668.74" y2= "8006.2" />
   <line class="fil2 str0" x1="7623.77" y1="7880.82" x2="7623.77" y2= "7955.16" />
   <line class="fil2 str0" x1="7834.57" y1="7876.5" x2="7834.57" y2= "7950.84" />
   <line class="fil2 str0" x1="8540.72" y1="8239.59" x2="8126.14" y2= "8377.97" />
   <line class="fil2 str0" x1="8126.14" y1="8377.97" x2="8350.97" y2= "8633.15" />
   <line class="fil2 str0" x1="8350.97" y1="8633.15" x2="8765.55" y2= "8494.77" />
   <line class="fil2 str0" x1="8765.55" y1="8494.77" x2="8540.72" y2= "8239.59" />
   <line class="fil2 str0" x1="8765.55" y1="8494.77" x2="8765.55" y2= "8531.94" />
   <line class="fil2 str0" x1="8350.97" y1="8633.15" x2="8350.97" y2= "8670.32" />
   <line class="fil2 str0" x1="8765.55" y1="8531.94" x2="8350.97" y2= "8670.32" />
   <line class="fil2 str0" x1="8126.14" y1="8377.97" x2="8126.14" y2= "8415.14" />
   <line class="fil2 str0" x1="8350.97" y1="8670.32" x2="8126.14" y2= "8415.14" />
   <line class="fil2 str0" x1="8683.04" y1="7981.58" x2="7646.59" y2= "8327.54" />
   <line class="fil2 str0" x1="7646.59" y1="8327.54" x2="8208.65" y2= "8965.49" />
   <line class="fil2 str0" x1="8208.65" y1="8965.49" x2="9245.11" y2= "8619.54" />
   <line class="fil2 str0" x1="9245.11" y1="8619.54" x2="8683.04" y2= "7981.58" />
   <line class="fil2 str0" x1="9245.11" y1="8619.54" x2="9245.11" y2= "8693.87" />
   <line class="fil2 str0" x1="8208.65" y1="8965.49" x2="8208.65" y2= "9039.83" />
   <line class="fil2 str0" x1="7646.59" y1="8327.54" x2="7646.59" y2= "8401.88" />
   <line class="fil2 str0" x1="6190.27" y1="8689.54" x2="6356.11" y2= "8634.19" />
   <line class="fil2 str0" x1="6235.24" y1="8740.58" x2="6190.27" y2= "8689.54" />
   <line class="fil2 str0" x1="6401.07" y1="8685.23" x2="6235.24" y2= "8740.58" />
   <line class="fil2 str0" x1="6356.11" y1="8634.19" x2="6401.07" y2= "8685.23" />
   <line class="fil2 str0" x1="6235.24" y1="8740.58" x2="6235.24" y2= "8814.92" />
   <line class="fil2 str0" x1="6190.27" y1="8689.54" x2="6190.27" y2= "8763.89" />
   <line class="fil2 str0" x1="6401.07" y1="8685.23" x2="6401.07" y2= "8759.56" />
   <path class="fil2 str0" d="M10468.86 10563.51c45.79,-15.29 62.79,-50.53 37.96,-78.72 -24.84,-28.19 -82.09,-38.65 -127.89,-23.36 -45.79,15.29 -62.78,50.53 -37.95,78.72 24.83,28.19 82.08,38.64 127.88,23.36z"/>
   <path class="fil2 str0" d="M8515.56 9564.36c45.79,-15.29 62.78,-50.53 37.95,-78.72 -24.83,-28.19 -82.08,-38.64 -127.88,-23.36 -45.79,15.29 -62.78,50.53 -37.96,78.72 24.84,28.19 82.09,38.65 127.89,23.36z"/>
   <line class="fil2 str0" x1="5853.03" y1="8306.77" x2="6018.87" y2= "8251.42" />
   <line class="fil2 str0" x1="5898" y1="8357.81" x2="5853.03" y2= "8306.77" />
   <line class="fil2 str0" x1="6063.83" y1="8302.45" x2="5898" y2= "8357.81" />
   <line class="fil2 str0" x1="6018.87" y1="8251.42" x2="6063.83" y2= "8302.45" />
   <line class="fil2 str0" x1="5898" y1="8357.81" x2="5898" y2= "8432.15" />
   <line class="fil2 str0" x1="5853.03" y1="8306.77" x2="5853.03" y2= "8381.11" />
   <line class="fil2 str0" x1="6063.83" y1="8302.45" x2="6063.83" y2= "8376.79" />
   <line class="fil2 str0" x1="6639.93" y1="9199.91" x2="6805.76" y2= "9144.55" />
   <line class="fil2 str0" x1="6684.9" y1="9250.94" x2="6639.93" y2= "9199.91" />
   <line class="fil2 str0" x1="6850.73" y1="9195.59" x2="6684.9" y2= "9250.94" />
   <line class="fil2 str0" x1="6805.76" y1="9144.55" x2="6850.73" y2= "9195.59" />
   <line class="fil2 str0" x1="6684.9" y1="9250.94" x2="6684.9" y2= "9325.28" />
   <line class="fil2 str0" x1="6639.93" y1="9199.91" x2="6639.93" y2= "9274.25" />
   <line class="fil2 str0" x1="6850.73" y1="9195.59" x2="6850.73" y2= "9269.92" />
   <line class="fil2 str0" x1="8953.06" y1="6334.49" x2="8745.77" y2= "6403.68" />
   <line class="fil2 str0" x1="8885.62" y1="6257.93" x2="8953.06" y2= "6334.49" />
   <line class="fil2 str0" x1="8678.33" y1="6327.13" x2="8885.62" y2= "6257.93" />
   <line class="fil2 str0" x1="8745.77" y1="6403.68" x2="8678.33" y2= "6327.13" />
   <line class="fil2 str0" x1="8953.06" y1="6334.49" x2="8953.06" y2= "6408.82" />
   <line class="fil2 str0" x1="8678.33" y1="6327.13" x2="8678.33" y2= "6401.46" />
   <line class="fil2 str0" x1="8745.77" y1="6403.68" x2="8745.77" y2= "6478.02" />
   <line class="fil2 str0" x1="7709.32" y1="6749.64" x2="7502.03" y2= "6818.84" />
   <line class="fil2 str0" x1="7641.87" y1="6673.08" x2="7709.32" y2= "6749.64" />
   <line class="fil2 str0" x1="7434.58" y1="6742.28" x2="7641.87" y2= "6673.08" />
   <line class="fil2 str0" x1="7502.03" y1="6818.84" x2="7434.58" y2= "6742.28" />
   <line class="fil2 str0" x1="7709.32" y1="6749.64" x2="7709.32" y2= "6823.98" />
   <line class="fil2 str0" x1="7434.58" y1="6742.28" x2="7434.58" y2= "6816.61" />
   <line class="fil2 str0" x1="7502.03" y1="6818.84" x2="7502.03" y2= "6893.17" />
   <line class="fil2 str0" x1="8030.57" y1="6200.86" x2="7823.28" y2= "6270.04" />
   <line class="fil2 str0" x1="7963.12" y1="6124.31" x2="8030.57" y2= "6200.86" />
   <line class="fil2 str0" x1="7755.83" y1="6193.49" x2="7963.12" y2= "6124.31" />
   <line class="fil2 str0" x1="7823.28" y1="6270.04" x2="7755.83" y2= "6193.49" />
   <line class="fil2 str0" x1="8030.57" y1="6200.86" x2="8030.57" y2= "6275.19" />
   <line class="fil2 str0" x1="7755.83" y1="6193.49" x2="7755.83" y2= "6267.83" />
   <line class="fil2 str0" x1="7823.28" y1="6270.04" x2="7823.28" y2= "6344.39" />
   <line class="fil2 str0" x1="6786.83" y1="6616.01" x2="6579.54" y2= "6685.2" />
   <line class="fil2 str0" x1="6719.38" y1="6539.46" x2="6786.83" y2= "6616.01" />
   <line class="fil2 str0" x1="6512.09" y1="6608.65" x2="6719.38" y2= "6539.46" />
   <line class="fil2 str0" x1="6579.54" y1="6685.2" x2="6512.09" y2= "6608.65" />
   <line class="fil2 str0" x1="6786.83" y1="6616.01" x2="6786.83" y2= "6690.35" />
   <line class="fil2 str0" x1="6512.09" y1="6608.65" x2="6512.09" y2= "6682.99" />
   <line class="fil2 str0" x1="6579.54" y1="6685.2" x2="6579.54" y2= "6759.54" />
   <line class="fil2 str0" x1="4599.96" y1="7787.53" x2="4392.67" y2= "7856.72" />
   <line class="fil2 str0" x1="4532.52" y1="7710.97" x2="4599.96" y2= "7787.53" />
   <line class="fil2 str0" x1="4325.22" y1="7780.17" x2="4532.52" y2= "7710.97" />
   <line class="fil2 str0" x1="4392.67" y1="7856.72" x2="4325.22" y2= "7780.17" />
   <line class="fil2 str0" x1="4599.96" y1="7787.53" x2="4599.96" y2= "7861.87" />
   <line class="fil2 str0" x1="4325.22" y1="7780.17" x2="4325.22" y2= "7854.51" />
   <line class="fil2 str0" x1="4392.67" y1="7856.72" x2="4392.67" y2= "7931.05" />
   <line class="fil2 str0" x1="4921.21" y1="7238.75" x2="4713.92" y2= "7307.94" />
   <line class="fil2 str0" x1="4853.77" y1="7162.19" x2="4921.21" y2= "7238.75" />
   <line class="fil2 str0" x1="4646.47" y1="7231.39" x2="4853.77" y2= "7162.19" />
   <line class="fil2 str0" x1="4713.92" y1="7307.94" x2="4646.47" y2= "7231.39" />
   <line class="fil2 str0" x1="4921.21" y1="7238.75" x2="4921.21" y2= "7313.08" />
   <line class="fil2 str0" x1="4646.47" y1="7231.39" x2="4646.47" y2= "7305.72" />
   <line class="fil2 str0" x1="4713.92" y1="7307.94" x2="4713.92" y2= "7382.27" />
   <line class="fil2 str0" x1="7087.45" y1="6957.22" x2="6880.16" y2= "7026.41" />
   <line class="fil2 str0" x1="7020" y1="6880.66" x2="7087.45" y2= "6957.22" />
   <line class="fil2 str0" x1="6812.71" y1="6949.86" x2="7020" y2= "6880.66" />
   <line class="fil2 str0" x1="6880.16" y1="7026.41" x2="6812.71" y2= "6949.86" />
   <line class="fil2 str0" x1="7087.45" y1="6957.22" x2="7087.45" y2= "7031.56" />
   <line class="fil2 str0" x1="6812.71" y1="6949.86" x2="6812.71" y2= "7024.19" />
   <line class="fil2 str0" x1="6880.16" y1="7026.41" x2="6880.16" y2= "7100.75" />
   <line class="fil2 str0" x1="5843.7" y1="7372.37" x2="5636.41" y2= "7441.57" />
   <line class="fil2 str0" x1="5776.26" y1="7295.82" x2="5843.7" y2= "7372.37" />
   <line class="fil2 str0" x1="5568.97" y1="7365.01" x2="5776.26" y2= "7295.82" />
   <line class="fil2 str0" x1="5636.41" y1="7441.57" x2="5568.97" y2= "7365.01" />
   <line class="fil2 str0" x1="5843.7" y1="7372.37" x2="5843.7" y2= "7446.72" />
   <line class="fil2 str0" x1="5568.97" y1="7365.01" x2="5568.97" y2= "7439.35" />
   <line class="fil2 str0" x1="5636.41" y1="7441.57" x2="5636.41" y2= "7515.9" />
   <path class="fil2 str0" d="M7971.98 11087.45c45.79,-15.28 62.78,-50.52 37.96,-78.72 -24.84,-28.18 -82.09,-38.64 -127.89,-23.35 -45.79,15.28 -62.78,50.53 -37.96,78.71 24.84,28.19 82.09,38.65 127.89,23.36z"/>
   <path class="fil2 str0" d="M7308.65 11308.86c45.79,-15.28 62.79,-50.52 37.95,-78.71 -24.83,-28.19 -82.08,-38.65 -127.88,-23.36 -45.79,15.28 -62.79,50.53 -37.95,78.72 24.83,28.19 82.08,38.64 127.88,23.35z"/>
   <path class="fil2 str0" d="M6645.33 11530.28c45.79,-15.28 62.79,-50.52 37.95,-78.71 -24.83,-28.19 -82.08,-38.65 -127.88,-23.36 -45.79,15.29 -62.79,50.53 -37.95,78.72 24.83,28.19 82.08,38.64 127.88,23.35z"/>
   <path class="fil2 str0" d="M6976.99 11419.57c45.79,-15.28 62.78,-50.52 37.95,-78.71 -24.83,-28.19 -82.09,-38.65 -127.89,-23.36 -45.79,15.28 -62.78,50.53 -37.95,78.72 24.83,28.19 82.09,38.64 127.89,23.35z"/>
   <path class="fil2 str0" d="M7640.32 11198.16c45.79,-15.28 62.79,-50.52 37.96,-78.72 -24.83,-28.18 -82.08,-38.64 -127.88,-23.35 -45.79,15.28 -62.79,50.53 -37.96,78.71 24.83,28.19 82.08,38.65 127.88,23.36z"/>
   <line class="fil2 str0" x1="6164.95" y1="6823.59" x2="5957.66" y2= "6892.78" />
   <line class="fil2 str0" x1="6097.5" y1="6747.03" x2="6164.95" y2= "6823.59" />
   <line class="fil2 str0" x1="5890.21" y1="6816.23" x2="6097.5" y2= "6747.03" />
   <line class="fil2 str0" x1="5957.66" y1="6892.78" x2="5890.21" y2= "6816.23" />
   <line class="fil2 str0" x1="6164.95" y1="6823.59" x2="6164.95" y2= "6897.93" />
   <line class="fil2 str0" x1="5890.21" y1="6816.23" x2="5890.21" y2= "6890.57" />
   <line class="fil2 str0" x1="5957.66" y1="6892.78" x2="5957.66" y2= "6967.12" />
   <line class="fil2 str0" x1="6465.58" y1="7164.79" x2="6258.29" y2= "7233.99" />
   <line class="fil2 str0" x1="6398.13" y1="7088.24" x2="6465.58" y2= "7164.79" />
   <line class="fil2 str0" x1="6190.84" y1="7157.43" x2="6398.13" y2= "7088.24" />
   <line class="fil2 str0" x1="6258.29" y1="7233.99" x2="6190.84" y2= "7157.43" />
   <line class="fil2 str0" x1="6465.58" y1="7164.79" x2="6465.58" y2= "7239.14" />
   <line class="fil2 str0" x1="6190.84" y1="7157.43" x2="6190.84" y2= "7231.77" />
   <line class="fil2 str0" x1="6258.29" y1="7233.99" x2="6258.29" y2= "7308.32" />
   <line class="fil2 str0" x1="4299.34" y1="7446.32" x2="4092.05" y2= "7515.52" />
   <line class="fil2 str0" x1="4231.89" y1="7369.76" x2="4299.34" y2= "7446.32" />
   <line class="fil2 str0" x1="4024.61" y1="7438.96" x2="4231.89" y2= "7369.76" />
   <line class="fil2 str0" x1="4092.05" y1="7515.52" x2="4024.61" y2= "7438.96" />
   <line class="fil2 str0" x1="4299.34" y1="7446.32" x2="4299.34" y2= "7520.66" />
   <line class="fil2 str0" x1="4024.61" y1="7438.96" x2="4024.61" y2= "7513.3" />
   <line class="fil2 str0" x1="4092.05" y1="7515.52" x2="4092.05" y2= "7589.85" />
   <line class="fil2 str0" x1="5543.09" y1="7031.17" x2="5335.8" y2= "7100.36" />
   <line class="fil2 str0" x1="5475.64" y1="6954.61" x2="5543.09" y2= "7031.17" />
   <line class="fil2 str0" x1="5268.34" y1="7023.81" x2="5475.64" y2= "6954.61" />
   <line class="fil2 str0" x1="5335.8" y1="7100.36" x2="5268.34" y2= "7023.81" />
   <line class="fil2 str0" x1="5543.09" y1="7031.17" x2="5543.09" y2= "7105.5" />
   <line class="fil2 str0" x1="5268.34" y1="7023.81" x2="5268.34" y2= "7098.14" />
   <line class="fil2 str0" x1="5335.8" y1="7100.36" x2="5335.8" y2= "7174.7" />
   <line class="fil2 str0" x1="5221.83" y1="7579.95" x2="5014.55" y2= "7649.14" />
   <line class="fil2 str0" x1="5154.38" y1="7503.39" x2="5221.83" y2= "7579.95" />
   <line class="fil2 str0" x1="4947.09" y1="7572.59" x2="5154.38" y2= "7503.39" />
   <line class="fil2 str0" x1="5014.55" y1="7649.14" x2="4947.09" y2= "7572.59" />
   <line class="fil2 str0" x1="5221.83" y1="7579.95" x2="5221.83" y2= "7654.29" />
   <line class="fil2 str0" x1="4947.09" y1="7572.59" x2="4947.09" y2= "7646.93" />
   <line class="fil2 str0" x1="5014.55" y1="7649.14" x2="5014.55" y2= "7723.48" />
   <line class="fil2 str0" x1="7408.69" y1="6408.44" x2="7201.41" y2= "6477.62" />
   <line class="fil2 str0" x1="7341.25" y1="6331.88" x2="7408.69" y2= "6408.44" />
   <line class="fil2 str0" x1="7133.96" y1="6401.07" x2="7341.25" y2= "6331.88" />
   <line class="fil2 str0" x1="7201.41" y1="6477.62" x2="7133.96" y2= "6401.07" />
   <line class="fil2 str0" x1="7408.69" y1="6408.44" x2="7408.69" y2= "6482.77" />
   <line class="fil2 str0" x1="7133.96" y1="6401.07" x2="7133.96" y2= "6475.41" />
   <line class="fil2 str0" x1="7201.41" y1="6477.62" x2="7201.41" y2= "6551.96" />
   <line class="fil2 str0" x1="8652.44" y1="5993.28" x2="8445.15" y2= "6062.47" />
   <line class="fil2 str0" x1="8584.99" y1="5916.73" x2="8652.44" y2= "5993.28" />
   <line class="fil2 str0" x1="8377.71" y1="5985.92" x2="8584.99" y2= "5916.73" />
   <line class="fil2 str0" x1="8445.15" y1="6062.47" x2="8377.71" y2= "5985.92" />
   <line class="fil2 str0" x1="8652.44" y1="5993.28" x2="8652.44" y2= "6067.62" />
   <line class="fil2 str0" x1="8377.71" y1="5985.92" x2="8377.71" y2= "6060.26" />
   <line class="fil2 str0" x1="8445.15" y1="6062.47" x2="8445.15" y2= "6136.81" />
   <line class="fil2 str0" x1="8331.19" y1="6542.06" x2="8123.89" y2= "6611.26" />
   <line class="fil2 str0" x1="8263.74" y1="6465.51" x2="8331.19" y2= "6542.06" />
   <line class="fil2 str0" x1="8056.45" y1="6534.7" x2="8263.74" y2= "6465.51" />
   <line class="fil2 str0" x1="8123.89" y1="6611.26" x2="8056.45" y2= "6534.7" />
   <line class="fil2 str0" x1="8331.19" y1="6542.06" x2="8331.19" y2= "6616.4" />
   <line class="fil2 str0" x1="8056.45" y1="6534.7" x2="8056.45" y2= "6609.04" />
   <line class="fil2 str0" x1="8123.89" y1="6611.26" x2="8123.89" y2= "6685.6" />
   <line class="fil2 str0" x1="10329.57" y1="10884.16" x2="10329.57" y2= "10512.47" />
   <line class="fil2 str0" x1="10518.22" y1="10884.16" x2="10518.22" y2= "10512.47" />
   <line class="fil2 str0" x1="8376.27" y1="9885.02" x2="8376.27" y2= "9513.33" />
   <line class="fil2 str0" x1="8564.92" y1="9885.02" x2="8564.92" y2= "9513.33" />
   <line class="fil2 str0" x1="7832.69" y1="11222.26" x2="7832.69" y2= "11036.42" />
   <line class="fil2 str0" x1="8021.34" y1="11222.26" x2="8021.34" y2= "11036.42" />
   <line class="fil2 str0" x1="7169.37" y1="11443.68" x2="7169.37" y2= "11257.83" />
   <line class="fil2 str0" x1="7358.01" y1="11443.68" x2="7358.01" y2= "11257.83" />
   <line class="fil2 str0" x1="6506.04" y1="11665.09" x2="6506.04" y2= "11479.25" />
   <line class="fil2 str0" x1="6694.68" y1="11665.09" x2="6694.68" y2= "11479.25" />
   <line class="fil2 str0" x1="6837.7" y1="11554.38" x2="6837.7" y2= "11368.54" />
   <line class="fil2 str0" x1="7026.34" y1="11554.38" x2="7026.34" y2= "11368.54" />
   <line class="fil2 str0" x1="7501.03" y1="11332.97" x2="7501.03" y2= "11147.13" />
   <line class="fil2 str0" x1="7689.68" y1="11332.97" x2="7689.68" y2= "11147.13" />
   <path class="fil2 str0" d="M12225.41 11092.11c-3.91,10.42 -9.72,17.07 -17.05,19.52"/>
   <line class="fil2 str0" x1="8817.07" y1="5922.45" x2="12835.73" y2= "10483.67" />
  </g>
 </g>
 <g id="IR-ray">
  <metadata id="CorelCorpID_3Corel-Layer"/>
  <path class="fil11" d="M9150.9 4285.12l-676.83 225.92 -441.22 -500.79 -784.08 4313.1 -11.22 61.68c-15.52,136.57 29.82,277.38 143.68,406.62 318.93,361.97 1054.14,496.26 1642.02,299.97 402.46,-134.37 631.68,-388.95 633.82,-652.25l-14.38 -118.08 -491.78 -4036.17z"/>
 </g>
</svg>
